<svg xmlns="http://www.w3.org/2000/svg" width="220" height="72" viewBox="0 0 220 72"><g><g><g><g><path fill="#383e4e" d="M.823 71.74l16.272-45.926L35.532 71.74h18.543L25.292.697l-8.4 23.416-.015-.006L0 71.741z"/></g><g><path fill="#2962ff" d="M89.335 0h-.814L74.373 43.784 57.123.059H38.781l27.564 71.093 8.479-26.227-.003-.006z"/></g></g><g><g><g><path fill="#383e4e" d="M107.665 25.63c0 2.443-.436 4.627-3.676 4.627-1.661 0-2.62-1.02-2.62-2.419 0-1.897 1.437-2.638 4.12-2.638h2.176zm2.269-3.236c0-3.06-1.822-4.4-5.108-4.408-3.87-.01-5.016 2.133-5.195 3.988h2.248c.245-1.05.625-2.166 2.872-2.166 2.519 0 2.897 1.449 2.897 2.634v1.146h-2.295c-4 0-6.358 1.375-6.358 4.378 0 2.047 1.355 4.113 4.526 4.113 2.612 0 3.686-1.183 4.156-2.08.034.821.113 1.462.22 1.762h2.223c-.08-.388-.186-1.71-.186-2.935z"/></g><g><path fill="#383e4e" d="M127.219 21.96c0-1.882-.019-2.94-.028-3.656h2.278c.037.377.073 1.434.073 2.747.703-1.822 2.307-2.997 4.532-3.065v2.316c-2.76.083-4.532 1.523-4.532 4.926v6.533h-2.323z"/></g><g><path fill="#383e4e" d="M149.56 21.774c0-1.159 0-2.378-.026-3.47h2.24c.036.404.098 1.395.091 2.07.614-1.204 1.787-2.388 3.915-2.388 1.905 0 3.214.966 3.725 2.41.72-1.277 1.99-2.41 4.288-2.41 2.184 0 4.241 1.29 4.241 4.931v8.844h-2.284v-8.562c0-1.562-.562-3.209-2.664-3.209-2.188 0-3.14 1.657-3.14 4.044v7.727h-2.279v-8.489c0-1.73-.489-3.27-2.6-3.27-2.16 0-3.202 1.745-3.202 4.31v7.449h-2.304z"/></g><g><path fill="#383e4e" d="M186.715 25.032c0-3.072 1.322-5.104 3.838-5.104 2.524 0 3.9 2.086 3.9 5.113 0 3.053-1.384 5.095-3.847 5.095-2.417 0-3.891-2.153-3.891-5.104zm10.13-.027c0-4.222-2.447-7.019-6.184-7.019-4.054 0-6.338 3.092-6.338 7.065 0 4.044 2.332 7.028 6.188 7.028 4.113 0 6.334-3.197 6.334-7.074z"/></g><g><path fill="#383e4e" d="M213.144 21.96c0-1.882-.018-2.94-.027-3.656h2.277c.037.377.073 1.434.073 2.747.703-1.822 2.308-2.997 4.533-3.065v2.316c-2.76.083-4.533 1.523-4.533 4.926v6.533h-2.323z"/></g><g><path fill="#2962ff" d="M100.73 43.624c1.812 5.503 3.139 9.616 3.548 11.295h.026c.332-1.5 1.76-5.528 3.78-11.295h2.365l-4.95 13.457h-2.56l-4.695-13.457z"/></g><g><path fill="#2962ff" d="M133.459 50.951c0 2.442-.436 4.626-3.677 4.626-1.66 0-2.62-1.019-2.62-2.418 0-1.898 1.438-2.638 4.12-2.638h2.177zm2.268-3.237c0-3.059-1.82-4.399-5.107-4.408-3.87-.01-5.017 2.133-5.194 3.988h2.247c.244-1.05.625-2.166 2.872-2.166 2.518 0 2.898 1.45 2.898 2.634v1.147h-2.297c-4 0-6.357 1.375-6.357 4.377 0 2.048 1.355 4.114 4.527 4.114 2.612 0 3.685-1.184 4.155-2.08.034.82.113 1.46.22 1.76h2.222c-.08-.386-.186-1.709-.186-2.934z"/></g><g><path fill="#2962ff" d="M153.896 43.624c1.893 2.992 2.698 4.272 3.182 5.032h.026c.572-.875 1.701-2.626 3.292-5.032h2.602l-4.55 6.47 4.593 6.987h-2.682c-1.638-2.633-2.775-4.444-3.317-5.316h-.026c-.448.75-1.54 2.546-3.293 5.316h-2.591l4.519-6.722-4.383-6.735z"/></g></g></g></g></g></svg>