<svg xmlns="http://www.w3.org/2000/svg" xmlns:xlink="http://www.w3.org/1999/xlink" viewBox="0 0 127 33"><path fill="#1F304C" d="M80.6607 18.9039h1.919l4.443 5.83v-5.83h2.056v9.469h-1.777l-4.585-6.02v6.02h-2.056v-9.469zm-4.037 4.761v-.022c0-1.623-1.191-2.968-2.868-2.968-1.678 0-2.836 1.314-2.836 2.936v.032c0 1.624 1.191 2.977 2.868 2.977 1.677 0 2.843-1.332 2.843-2.955h-.007zm-7.881 0v-.022c0-2.69 2.124-4.895 5.046-4.895 2.921 0 5.018 2.177 5.018 4.869v.026c0 2.693-2.123 4.898-5.045 4.898-2.923 0-5.019-2.184-5.019-4.876zm-4.03 4.708h2.083v-9.469h-2.083v9.469zm-9.401-1.38l1.232-1.475c.852.704 1.744 1.15 2.827 1.15.852 0 1.37-.343 1.37-.892v-.028c0-.528-.324-.799-1.907-1.203-1.907-.487-3.139-1.015-3.139-2.896v-.026c0-1.713 1.381-2.855 3.313-2.855 1.276-.02 2.52.405 3.517 1.203l-1.084 1.571c-.839-.582-1.664-.934-2.463-.934-.797 0-1.215.365-1.215.825v.028c0 .622.405.825 2.042 1.244 1.919.5 3.006 1.189 3.006 2.84v.027c0 1.88-1.433 2.93605-3.476 2.93605-1.482.00595-2.913-.53305-4.023-1.51505zm-3.8 1.38h2.084v-9.469h-2.084v9.469zm-11.05-9.469h2.299l2.474 6.668 2.477-6.668h2.245l-3.828 9.536h-1.84l-3.827-9.536zm81.939-10.033c1.015 0 1.599-.541 1.599-1.34v-.027c0-.892-.621-1.352-1.636-1.352h-2.073v2.719h2.11zm-4.193-4.599h4.333c1.203 0 2.138.343 2.759.96.527.528.812 1.272.812 2.164v.03c0 1.53-.825 2.49-2.029 2.937l2.313 3.38h-2.439l-2.029-3.029h-1.637v3.029h-2.083v-9.471zm-9.063 0h7.143v1.853h-5.073v1.921h4.465v1.853h-4.465v1.988h5.139v1.853h-7.209v-9.468zm-9.061 0h7.14v1.853h-5.071v1.921h4.463v1.853h-4.463v1.988h5.139v1.853h-7.208v-9.468zm-6.561 1.921h-2.881v-1.921h7.846v1.921h-2.882v7.547h-2.083v-7.547zm-12.89-1.921h1.922l4.436 5.83v-5.83h2.056v9.468h-1.773l-4.585-6.019v6.019h-2.056v-9.468zm-10.374 5.41v-5.41h2.083v5.357c0 1.541.771 2.339 2.042 2.339s2.043-.771 2.043-2.272v-5.424h2.083v5.343c0 2.867-1.61 4.274-4.153 4.274-2.542 0-4.098-1.421-4.098-4.207zm-7.953-5.41h2.083v7.574h4.72v1.894h-6.803v-9.468zm-4.037 4.761v-.027c0-1.623-1.189-2.976-2.867-2.976s-2.835 1.325-2.835 2.948v.028c0 1.623 1.191 2.976 2.868 2.976 1.678 0 2.84-1.326 2.84-2.949h-.006zm-7.879 0v-.027c0-2.692 2.123-4.896 5.045-4.896 2.922 0 5.018 2.174 5.018 4.868v.028c0 2.692-2.124 4.897-5.045 4.897-2.922 0-5.018-2.178-5.018-4.87zm-9.928-4.761h2.299l2.474 6.668 2.477-6.668h2.245l-3.828 9.536h-1.84l-3.827-9.536zm-25.467 27.343c.65 1.235 2.18 1.71 3.415 1.06.452-.239.821-.608 1.06-1.06l7.309-13.902-14.919 7.944 3.135 5.958zm16.41-31.522l-14.476 3.565L3.0157.0869c-.521-.147-1.078-.106-1.573.114-1.261.6-1.798 2.111-1.196 3.373.015.031.03.062.047.093l8.582 16.322.855-3.408-2.221-8.851c-.124-.458-.024-.948.272-1.32.465-.564 1.26-.724 1.907-.386l17.149 8.908c.436.228.735.654.8 1.142l6.533-12.407c.557-1.054.301-2.354-.614-3.118-.604-.485-1.403-.655-2.152-.456z"></path></svg>