<?xml version="1.0" encoding="utf-8"?>
<!-- Generator: Adobe Illustrator 25.1.0, SVG Export Plug-In . SVG Version: 6.00 Build 0)  -->
<svg version="1.1" id="Capa_1" xmlns="http://www.w3.org/2000/svg" xmlns:xlink="http://www.w3.org/1999/xlink" x="0px" y="0px"
	 viewBox="0 0 1597.1 512" style="enable-background:new 0 0 1597.1 512;" xml:space="preserve">
<g>
	<g>
		<path d="M383.8,171.8c-7.9-8.3-21-8.7-29.3-0.8L222,296.7l-63.2-64.9c-8-8.2-21.1-8.4-29.4-0.4c-8.2,8-8.4,21.1-0.4,29.4
			l77.5,79.6c4.1,4.2,9.5,6.3,14.9,6.3c5.1,0,10.3-1.9,14.3-5.7l147.4-139.8C391.4,193.3,391.7,180.2,383.8,171.8z"/>
	</g>
</g>
<g>
	<g>
		<path d="M256,0C114.8,0,0,114.8,0,256s114.8,256,256,256s256-114.8,256-256S397.2,0,256,0z M256,470.5
			c-118.3,0-214.5-96.2-214.5-214.5c0-118.3,96.2-214.5,214.5-214.5c118.3,0,214.5,96.2,214.5,214.5
			C470.5,374.3,374.3,470.5,256,470.5z"/>
	</g>
</g>
<g>
	<g>
		<path d="M798.4,0c-141.2,0-256,114.8-256,256s114.8,256,256,256s256-114.8,256-256S939.6,0,798.4,0z M798.4,470.5
			c-118.3,0-214.5-96.2-214.5-214.5c0-118.3,96.2-214.5,214.5-214.5c118.3,0,214.5,96.2,214.5,214.5
			C1012.9,374.3,916.7,470.5,798.4,470.5z"/>
	</g>
</g>
<g>
	<g>
		<path d="M1341.1-3.4c-141.2,0-256,114.8-256,256s114.8,256,256,256s256-114.8,256-256S1482.2-3.4,1341.1-3.4z M1341.1,467.1
			c-118.3,0-214.5-96.2-214.5-214.5c0-118.3,96.2-214.5,214.5-214.5c118.3,0,214.5,96.2,214.5,214.5
			C1555.5,370.8,1459.3,467.1,1341.1,467.1z"/>
	</g>
</g>
<g>
	<g>
		<path d="M926,171.8c-7.9-8.3-21-8.7-29.3-0.8L764.2,296.7L701,231.8c-8-8.2-21.1-8.4-29.4-0.4c-8.2,8-8.4,21.1-0.4,29.4l77.5,79.6
			c4.1,4.2,9.5,6.3,14.9,6.3c5.1,0,10.3-1.9,14.3-5.7l147.4-139.8C933.6,193.3,933.9,180.2,926,171.8z"/>
	</g>
</g>
</svg>
