<?xml version="1.0" encoding="utf-8"?>
<!-- Generator: Adobe Illustrator 24.0.0, SVG Export Plug-In . SVG Version: 6.00 Build 0)  -->
<svg version="1.1" id="Layer_1" xmlns="http://www.w3.org/2000/svg" xmlns:xlink="http://www.w3.org/1999/xlink" x="0px" y="0px"
	 viewBox="0 0 96.3 90.4" style="enable-background:new 0 0 96.3 90.4;" xml:space="preserve">
<style type="text/css">
	.st0{fill:#BE1E2D;}
	.st1{fill:#1B75BB;}
	.st2{fill:#81BC06;}
	.st3{fill:none;}
	.st4{fill:#CCCCCC;}
	.st5{opacity:0.8;}
	.st6{fill:#232323;}
</style>
<title>mr-logo-icon</title>
<g>
	<path class="st0" d="M96.3,50.3c0-0.1,0-0.1-0.1-0.2C96.1,50.1,96.2,50.3,96.3,50.3z"/>
	<path class="st0" d="M96.1,49.8v-0.1C96.1,49.7,96.1,49.8,96.1,49.8z"/>
	<path class="st0" d="M96,49.6L96,49.6z"/>
	<path class="st0" d="M96.2,50.1v-0.2V50.1z"/>
	<path class="st0" d="M95.9,49.3"/>
	<path class="st1" d="M96.1,49.9L96.1,49.9z"/>
	<path class="st1" d="M96,49.5c0-0.1,0-0.1,0-0.2C96,49.4,96,49.4,96,49.5z"/>
	<path class="st1" d="M96.1,49.7v-0.2C96,49.6,96,49.7,96.1,49.7z"/>
	<path class="st1" d="M96.2,50.1L96.2,50.1z"/>
	<path class="st1" d="M96.3,50.3"/>
	<path class="st2" d="M95.9,49.1c0,0.1,0,0.1,0,0.2C95.9,49.2,95.9,49.2,95.9,49.1z"/>
	<g>
		<path class="st3" d="M35.6,42.3c1.4,0.6,2.8,1.4,4.1,2.3l0.3,0.2c1.1,0.8,2.1,1.7,3,2.7c2-2.3,4.5-4.1,7.2-5.5
			c-0.8-1.3-1.5-2.8-2-4.3c-0.5-1.4-0.8-2.8-1-4.3c-1.5,0.3-3.1,0.5-4.7,0.5c-1.5,0-2.9-0.1-4.4-0.4c-0.1,1.6-0.5,3.1-0.9,4.6
			C36.8,39.7,36.2,41,35.6,42.3z"/>
		<path class="st3" d="M36.9,46.1c1.6,0.7,3.2,1.6,4.6,2.6l0.3,0.2c1.2,0.9,2.4,1.9,3.5,3c2.3-2.6,5.1-4.7,8.1-6.2
			c-0.9-1.5-1.6-3.1-2.2-4.8c-0.5-1.6-0.9-3.2-1.1-4.8c-1.7,0.4-3.5,0.6-5.3,0.6c-1.7,0-3.3-0.1-4.9-0.4c-0.2,1.8-0.5,3.5-1,5.2
			C38.4,43.1,37.7,44.6,36.9,46.1z"/>
		<path class="st4" d="M51.7,42.4h-0.6v8.5h2.4v-8.5H51.7z"/>
		<path class="st4" d="M38.7,42.4H37v8.5h2.4v-8.5H38.7z"/>
		<path class="st4" d="M43.5,42.4h-1.7v8.5h2.4v-8.5H43.5z"/>
		<path class="st4" d="M46.6,42.4h-0.3v8.5h2.4v-8.5H46.6z"/>
		<path class="st4" d="M43.5,38.6h0.7v0.6h-0.7V38.6z"/>
		<path class="st4" d="M44.9,38.6h0.7v0.6h-0.7V38.6z"/>
		<path class="st4" d="M46.2,38.6h0.7v0.6h-0.7V38.6z"/>
		<path class="st4" d="M48.3,31.1h-3v2.7h3V31.1z"/>
		<path d="M55.1,42.7v-2h-1.6l-8-5.3v-4.6h-0.7v4.6l-8,5.3h-1.6v2h1.4v7.9h-1.3v2h19.8v-2h-1.4v-7.9H55.1z M45.2,35.9l7.2,4.8H38.1
			L45.2,35.9z M36,41.3h18.5v0.8H36V41.3z M37.4,42.7h4.1v7.2h0.7v-7.2h6.2v7.9h-11L37.4,42.7z M54.5,52H36v-0.7h18.5L54.5,52z
			 M53.1,50.6H49v-7.9h4.1V50.6z"/>
	</g>
	<g id="layer101" class="st5">
		<path class="st6" d="M43.5,90c-2.2-1.2-3-2.7-3.2-6.1c-0.1-3,0.4-5.8,1.8-10.4c3.1-9.8,9.5-18.4,18-24.2c1.1-0.8,2.3-1.5,3.5-2.1
			l1.2-0.5l3.3,1.4c1.8,0.8,3.7,1.5,4.1,1.7c0.8,0.3,0.7,0.3-2.1,1.7c-1.7,0.8-3.3,1.7-4.8,2.7l-1.9,1.3l1.5,0.2
			c4.7,0.4,8.2,4.5,7.8,9.2c-0.1,0.9-0.3,1.8-0.6,2.6c-1.1,2.1-2.8,3.7-5,4.7c-1.9,0.6-3.9,0.6-5.8,0c-2.6-0.9-5.5-4.4-5.5-6.7
			c0-1.8-0.5-1.7-1.8,0.6c-3.1,5.2-4.8,11-5,17.1c-0.3,4.6-0.8,6.2-2.2,6.9C45.8,90.5,44.5,90.5,43.5,90z"/>
		<path class="st6" d="M40.1,72.6c-0.9-2.4-2.1-4.8-3.5-7l-1.2-1.8L35,65.4c-0.5,2.8-2.2,5.3-4.7,6.6c-1.6,0.9-5.9,0.9-7.6,0
			c-4.3-2.2-6-7.4-3.8-11.6c0.8-1.6,2.2-3,3.8-3.8c0.9-0.5,1.9-0.8,2.9-0.9h1.1L25.8,55c-2.7-1.7-5.6-3.1-8.7-4.2
			c-3.5-1.1-7.1-1.7-10.7-1.9c-4.1-0.3-5.2-0.6-6.1-2.1c-1.2-2,0-4.7,2.7-6.1c3.4-1.7,11.5-0.3,19.4,3.4c8.6,4,16.4,11.2,20.4,18.8
			l1.2,2.2l-1.2,2.6c-0.6,1.3-1.2,2.6-1.7,4C40.6,73.5,40.4,73.7,40.1,72.6z"/>
		<path class="st6" d="M80.4,50.1c-3.2-0.6-6.4-1.5-9.5-2.7C61.8,43.9,53.1,36.8,48.5,29C48,28,47.4,27,47,26
			c0.3-1.1,0.7-2.1,1.2-3.1c0.7-1.5,1.5-3.1,1.7-3.7s0.4-1,0.5-1c0.6,0.9,1,1.8,1.5,2.8c0.7,1.5,1.6,3,2.5,4.5l1.2,1.7l0.1-1.8
			c0.4-4.7,4.4-8.1,9.1-7.8c0.8,0.1,1.7,0.3,2.5,0.6C71.7,20,73.8,25,72,29.4c-0.1,0.1-0.1,0.2-0.2,0.4c-1.3,2.7-3.5,4.2-6.9,4.9
			l-1.3,0.3l1.7,1c5.5,3.4,11.8,5.2,18.3,5.4c3.8,0.2,5.3,0.6,6.2,1.7c1.7,2.2,0.2,5.7-3,6.8C84.7,50.3,82.6,50.4,80.4,50.1z"/>
		<path class="st6" d="M23.2,42.8c-1.2-0.6-2.5-1.2-3.8-1.7c-0.6-0.2-1.2-0.4-1.8-0.8c0.6-0.4,1.2-0.7,1.9-0.9
			c2.4-1.1,4.8-2.4,6.9-4l0.8-0.7h-1.1c-2.1,0-4-0.8-5.5-2.2c-1.9-1.5-2.9-3.9-2.8-6.3c-0.1-3,1.6-5.9,4.3-7.3
			c1.4-0.8,1.8-0.8,4-0.8c2.7,0,3.5,0.3,5.5,1.9c1.6,1.5,2.6,3.6,2.8,5.8c0,0.5,0,1,0.1,1.5c1.1-1.6,2.1-3.3,3-5
			c2.3-4.5,3.4-9.1,3.8-15.3c0.3-4.2,0.6-5.2,1.9-6.2c1.2-0.7,2.7-0.8,4-0.2c2,1,3.1,3.6,3.1,7c-0.3,3.4-1,6.8-2.1,10.1
			C45,27.4,37.4,37,28.9,42.1C25.6,44,25.6,44,23.2,42.8z"/>
	</g>
</g>
</svg>
