<?xml version="1.0" encoding="utf-8"?>
<!-- Generator: Adobe Illustrator 24.0.0, SVG Export Plug-In . SVG Version: 6.00 Build 0)  -->
<svg version="1.1" id="Layer_1" xmlns="http://www.w3.org/2000/svg" xmlns:xlink="http://www.w3.org/1999/xlink" x="0px" y="0px"
	 viewBox="0 0 89.2 89.2" style="enable-background:new 0 0 89.2 89.2;" xml:space="preserve">
<style type="text/css">
	.st0{fill:none;}
	.st1{fill:#BE1E2D;}
	.st2{fill:#2F397B;}
	.st3{fill:#FFFFFF;stroke:#FFFFFF;stroke-width:3;stroke-miterlimit:10;}
	.st4{fill:#EC297B;}
	.st5{fill:#F7318B;}
	.st6{fill:#1B75BB;}
	.st7{fill:#F6921E;}
	.st8{fill:#81BC06;}
	.st9{fill:#232323;}
	.st10{fill:#CCCCCC;}
</style>
<title>pr-icon</title>
<g>
	<path class="st0" d="M29,42.4c2.4,1,4.6,2.3,6.7,3.8l0.4,0.3c1.8,1.3,3.5,2.8,5,4.4c3.3-3.7,7.4-6.8,11.9-8.9
		c-2.5-4.3-4.2-9.1-4.8-14c-2.5,0.6-5.1,0.9-7.7,0.9c-2.4,0-4.8-0.2-7.2-0.6c-0.2,2.6-0.8,5.1-1.5,7.5C31.1,38,30.1,40.2,29,42.4z"
		/>
	<path class="st1" d="M0.4,52.4c0-0.1,0-0.1-0.1-0.2C0.3,52.1,0.4,52.3,0.4,52.4z"/>
	<path class="st1" d="M48.4,78"/>
	<path class="st1" d="M0.2,51.9v-0.1C0.2,51.8,0.2,51.8,0.2,51.9z"/>
	<path class="st1" d="M0.1,51.6L0.1,51.6z"/>
	<path class="st1" d="M0.3,52.1V52V52.1z"/>
	<path class="st1" d="M48.6,77.8L48.6,77.8L48.6,77.8z"/>
	<path class="st1" d="M0.1,51.4"/>
	<path class="st2" d="M77.9,56.2L77.9,56.2L77.9,56.2z"/>
	<path class="st2" d="M48.6,77.8"/>
	<circle class="st3" cx="44.9" cy="44" r="25.6"/>
	<path class="st2" d="M48.5,78l-0.1,0.1L48.5,78z"/>
	<path class="st4" d="M54.9,3.1L54.9,3.1z"/>
	<path class="st4" d="M55.1,3l0.2-0.1L55.1,3z"/>
	<path class="st4" d="M77.8,56.3"/>
	<path class="st5" d="M55.7,2.6l-0.1,0.1L55.7,2.6z"/>
	<path class="st5" d="M55.5,2.7l-0.2,0.1L55.5,2.7z"/>
	<path class="st5" d="M55.6,2.7l-0.1,0.1L55.6,2.7z"/>
	<path class="st6" d="M0.3,52L0.3,52z"/>
	<path class="st6" d="M26.3,3.6L26.3,3.6L26.3,3.6z"/>
	<path class="st6" d="M0.1,51.6c0-0.1,0-0.1,0-0.2C0.1,51.4,0.1,51.5,0.1,51.6z"/>
	<path class="st6" d="M0.2,51.8v-0.2C0.2,51.7,0.2,51.7,0.2,51.8z"/>
	<path class="st6" d="M0.3,52.2L0.3,52.2z"/>
	<path class="st6" d="M0.4,52.4"/>
	<polygon class="st6" points="26.5,3.7 26.5,3.7 26.5,3.8 	"/>
	<path class="st7" d="M26.2,3.5L26.2,3.5z"/>
	<path class="st7" d="M55.3,2.9"/>
	<path class="st7" d="M26.4,3.7l0.1,0.1L26.4,3.7z"/>
	<path class="st7" d="M55,3L55.1,3L55,3z"/>
	<path class="st8" d="M0,51.1c0,0.1,0,0.1,0.1,0.2C0,51.3,0,51.2,0,51.1z"/>
	<path class="st9" d="M55.2,20c-1,0-1.9-0.8-1.9-1.9c0,0,0,0,0,0l0,0c0.1-1.9-0.8-3.6-2.3-4.6c-2-1.1-4.3-1.6-6.6-1.5
		c-2.3-0.1-4.6,0.4-6.6,1.5c-1.6,1-2.5,2.8-2.3,4.7c0,1-0.8,1.9-1.9,1.9c-1,0-1.9-0.8-1.9-1.9c0-1.6,0.3-3.2,1.1-4.6
		c0.7-1.3,1.7-2.4,2.9-3.2c2.6-1.5,5.6-2.2,8.6-2.1c3-0.1,6,0.6,8.6,2.1c1.2,0.8,2.3,1.9,3,3.2c0.7,1.4,1.1,3,1.1,4.6
		C57.1,19.2,56.2,20,55.2,20z"/>
	<path class="st9" d="M50.4,6c0,3.3-2.7,6-6,6s-6-2.7-6-6s2.7-6,6-6S50.4,2.7,50.4,6z"/>
	<path class="st9" d="M17.2,34.5c-0.5,0-1-0.2-1.3-0.6c-1.1-1.2-1.9-2.6-2.3-4.2c-0.3-1.4-0.3-2.9,0.1-4.3c1-2.9,2.7-5.4,5.1-7.3
		c2.2-2.1,4.9-3.6,7.8-4.2c1.4-0.2,2.9-0.1,4.3,0.4c1.5,0.6,2.8,1.5,3.9,2.8c0.7,0.7,0.7,1.9,0,2.6c-0.7,0.7-1.9,0.7-2.6,0l-0.2-0.2
		c-1.1-1.5-3-2.3-4.8-2c-2.2,0.5-4.3,1.7-5.9,3.3c-1.8,1.4-3.2,3.3-4,5.5c-0.5,1.8,0,3.7,1.4,5c0.7,0.8,0.6,1.9-0.1,2.6c0,0,0,0,0,0
		l0,0C18.2,34.3,17.7,34.5,17.2,34.5z"/>
	<path class="st9" d="M21.8,12.5c2.2,2.5,2,6.3-0.5,8.5s-6.3,2-8.5-0.5s-2-6.3,0.5-8.5c0,0,0,0,0,0l0,0C15.8,9.8,19.6,10,21.8,12.5z
		"/>
	<path class="st9" d="M18.2,57.4c-1.6,0-3.2-0.3-4.6-1.1c-1.3-0.7-2.4-1.7-3.2-3c-1.5-2.6-2.2-5.6-2.1-8.6c-0.1-3,0.6-6,2.1-8.6
		c0.8-1.3,1.9-2.3,3.2-3c1.4-0.7,3-1.1,4.6-1.1c1-0.1,1.9,0.7,2,1.7c0.1,1-0.7,1.9-1.7,2c0,0,0,0,0,0c-0.1,0-0.2,0-0.3,0
		c-1.9-0.1-3.7,0.7-4.7,2.3c-1.1,2-1.6,4.3-1.5,6.7c-0.1,2.3,0.4,4.6,1.5,6.6c1,1.6,2.8,2.5,4.7,2.3c1-0.1,1.9,0.7,2,1.7
		c0.1,1-0.7,1.9-1.7,2h-0.3V57.4z"/>
	<path class="st9" d="M6,38.8c3.3,0,6,2.7,6,6s-2.7,6-6,6s-6-2.7-6-6S2.7,38.8,6,38.8z"/>
	<path class="st9" d="M28.8,75.2c-0.6,0-1.3-0.1-1.9-0.2c-2.9-0.8-5.5-2.4-7.6-4.6c-2.2-2-3.9-4.7-4.6-7.6c-0.3-1.4-0.3-2.9,0.2-4.3
		c0.5-1.5,1.4-2.9,2.5-4c0.7-0.8,1.8-0.9,2.6-0.2c0.6,0.5,0.8,1.5,0.5,2.2c-0.1,0.2-0.3,0.4-0.5,0.5c-1.4,1.2-2.1,3.2-1.7,5
		c0.7,2.2,2,4.2,3.7,5.7c1.5,1.7,3.5,3,5.7,3.6c1.8,0.4,3.7-0.3,4.9-1.7c0.7-0.7,1.9-0.7,2.6,0c0.7,0.7,0.7,1.9,0,2.6
		c-1.1,1.2-2.5,2-4,2.5C30.5,75.1,29.7,75.2,28.8,75.2z"/>
	<circle class="st9" cx="17.7" cy="72" r="6"/>
	<path class="st9" d="M44.4,80.9c-3,0.1-6-0.6-8.6-2.1c-1.2-0.8-2.2-1.9-2.9-3.2c-0.7-1.4-1.1-3-1.1-4.6c0-1,0.8-1.9,1.9-1.9
		c1,0,1.9,0.8,1.9,1.9c-0.1,1.9,0.7,3.7,2.3,4.7c2,1.1,4.3,1.6,6.6,1.5c2.3,0.1,4.6-0.4,6.6-1.5c1.6-1,2.4-2.8,2.3-4.7
		c0.1-1,1-1.8,2-1.7c0.9,0.1,1.6,0.8,1.7,1.7c0.1,1.6-0.3,3.2-1,4.6c-0.7,1.3-1.7,2.4-2.9,3.2C50.4,80.3,47.4,81,44.4,80.9z"/>
	<path class="st9" d="M38.4,83.2c0-3.3,2.7-6,6-6s6,2.7,6,6s-2.7,6-6,6S38.4,86.5,38.4,83.2z"/>
	<path class="st9" d="M60.5,75.2c-0.8,0-1.6-0.1-2.4-0.4c-1.5-0.5-2.9-1.4-4-2.5c-0.7-0.7-0.8-1.9,0-2.6c0.7-0.7,1.9-0.8,2.6,0l0,0
		h0c1,1.1,2.3,1.7,3.8,1.8c0.4,0,0.7,0,1.1-0.1c2.2-0.7,4.2-1.9,5.7-3.6c1.7-1.5,3-3.5,3.7-5.7c0.4-1.8-0.2-3.8-1.7-5
		c-0.7-0.7-0.8-1.9-0.1-2.6c0.7-0.7,1.9-0.8,2.6,0l0,0c1.2,1.1,2,2.5,2.5,4c0.4,1.4,0.5,2.9,0.2,4.3c-0.8,3-2.3,5.6-4.6,7.7
		c-2,2.2-4.7,3.8-7.6,4.6C61.8,75.1,61.2,75.2,60.5,75.2z"/>
	<path class="st9" d="M67.4,76.2c-2.3-2.3-2.3-6.1,0-8.5c2.3-2.3,6.1-2.3,8.5,0c2.3,2.3,2.3,6.1,0,8.5l0,0
		C73.5,78.6,69.7,78.6,67.4,76.2C67.4,76.2,67.4,76.2,67.4,76.2z"/>
	<path class="st9" d="M71,57.4c-1,0.1-1.9-0.7-2-1.7c-0.1-1,0.7-1.9,1.7-2c0.1,0,0.2,0,0.3,0c1.9,0.1,3.7-0.7,4.7-2.3
		c1.1-2,1.6-4.3,1.5-6.6c0.1-2.3-0.4-4.6-1.5-6.6c-1-1.6-2.8-2.5-4.7-2.3c-1,0.1-1.9-0.7-2-1.7c-0.1-1,0.7-1.9,1.7-2H71
		c1.6,0,3.2,0.3,4.6,1.1c1.3,0.7,2.4,1.7,3.2,3c1.5,2.6,2.2,5.6,2.1,8.6c0.1,3-0.6,6-2.1,8.6c-0.8,1.3-1.9,2.3-3.2,3
		C74.2,57.1,72.6,57.5,71,57.4z"/>
	<path class="st9" d="M83.2,50.7c-3.3,0-6-2.7-6-6s2.7-6,6-6s6,2.7,6,6S86.5,50.7,83.2,50.7z"/>
	<path class="st9" d="M71,34.5c-1,0-1.8-0.8-1.8-1.8c0-0.5,0.2-0.9,0.5-1.3c1.4-1.3,2-3.2,1.6-5c-0.7-2.2-2-4.1-3.8-5.6
		c-1.6-1.7-3.6-2.9-5.8-3.5c-1.8-0.3-3.7,0.3-4.9,1.8c-0.8,0.7-2,0.5-2.6-0.2c-0.5-0.6-0.6-1.6-0.1-2.3c1.1-1.2,2.5-2.1,4-2.6
		c1.4-0.5,2.9-0.5,4.3-0.3c2.9,0.7,5.6,2.3,7.7,4.5c2.3,2,4,4.6,4.8,7.5c0.4,1.4,0.3,2.9-0.1,4.3c-0.5,1.6-1.3,3-2.4,4.1
		C72,34.3,71.5,34.5,71,34.5z"/>
	<path class="st9" d="M75.9,20.5c-2.3,2.4-6.1,2.5-8.5,0.2c-2.4-2.3-2.5-6.1-0.2-8.5s6.1-2.5,8.5-0.2c0,0,0,0,0,0l0,0
		C78.1,14.4,78.2,18.1,75.9,20.5z"/>
	<path class="st0" d="M31.2,48.5c2.7,1.2,5.2,2.6,7.6,4.3c0.2,0.1,0.3,0.2,0.5,0.3c2.1,1.5,4,3.2,5.7,5c3.8-4.2,8.3-7.7,13.4-10.1
		c-1.5-2.5-2.7-5.2-3.6-7.9c-0.9-2.6-1.5-5.2-1.9-7.9c-2.8,0.6-5.8,1-8.7,1c-2.7,0-5.4-0.2-8.1-0.7c-0.3,2.9-0.9,5.7-1.7,8.5
		C33.6,43.6,32.5,46.1,31.2,48.5z"/>
	<path class="st10" d="M55.5,42.4h-1v14.1h3.9V42.4H55.5z"/>
	<path class="st10" d="M34.2,42.4h-2.8v14.1h3.9V42.4H34.2z"/>
	<path class="st10" d="M42.1,42.4h-2.9v14.1h3.9V42.4H42.1z"/>
	<path class="st10" d="M47.1,42.4h-0.5v14.1h3.9V42.4H47.1z"/>
	<path class="st10" d="M42,36.3h1.1v1H42V36.3z"/>
	<path class="st10" d="M44.3,36.3h1.1v1h-1.1V36.3z"/>
	<path class="st10" d="M46.5,36.3h1.1v1h-1.1V36.3z"/>
	<path class="st10" d="M49.9,23.9h-5v4.4h5V23.9z"/>
	<path d="M61.1,43v-3.3h-2.6l-13.1-8.8v-7.6h-1.1v7.6l-13.1,8.8h-2.6V43h2.3v13h-2.3v3.3h32.5V56h-2.3V43H61.1z M44.8,31.8l11.8,7.8
		H33.1L44.8,31.8z M29.6,40.7H60v1.2H29.6V40.7z M31.9,43h6.8v11.8h1.1V43h10.2v13h-18L31.9,43z M60,58.2H29.6V57H60V58.2z M57.8,56
		H51V43h6.8L57.8,56z"/>
</g>
</svg>
