<svg id="Layer_1" data-name="Layer 1" xmlns="http://www.w3.org/2000/svg" viewBox="0 0 86.49 86.49"><defs><style>.cls-1{fill:#232323;}</style></defs><circle class="cls-1" cx="65.2" cy="35.47" r="3.38"/><path class="cls-1" d="M75,7.66H70.58V4.28a3.38,3.38,0,1,0-6.76,0V7.66H48.45V4.28a3.38,3.38,0,0,0-6.76,0V7.66H26.49V4.28a3.38,3.38,0,1,0-6.76,0V7.66H15.51A13.53,13.53,0,0,0,2,21.17V73.88A13.53,13.53,0,0,0,15.51,87.39H41.35a3.38,3.38,0,1,0,0-6.75H15.51a6.77,6.77,0,0,1-6.76-6.76V21.17a6.76,6.76,0,0,1,6.76-6.75h4.22V17.8a3.38,3.38,0,0,0,6.76,0V14.42h15.2V17.8a3.38,3.38,0,0,0,6.76,0V14.42H63.82V17.8a3.38,3.38,0,0,0,6.76,0V14.42H75a6.77,6.77,0,0,1,6.76,6.75V40.43a3.38,3.38,0,1,0,6.75,0V21.17A13.52,13.52,0,0,0,75,7.66Z" transform="translate(-1.99 -0.9)"/><path class="cls-1" d="M68,46.51A20.44,20.44,0,1,0,88.48,67,20.46,20.46,0,0,0,68,46.51Zm0,34.13A13.69,13.69,0,1,1,81.73,67,13.7,13.7,0,0,1,68,80.64Z" transform="translate(-1.99 -0.9)"/><path class="cls-1" d="M72.94,63.57H71.42V60a3.38,3.38,0,1,0-6.76,0V67A3.38,3.38,0,0,0,68,70.33h4.9a3.38,3.38,0,0,0,0-6.76Z" transform="translate(-1.99 -0.9)"/><circle class="cls-1" cx="50.51" cy="35.47" r="3.38"/><circle class="cls-1" cx="35.81" cy="50.17" r="3.38"/><circle class="cls-1" cx="21.12" cy="35.47" r="3.38"/><circle class="cls-1" cx="21.12" cy="50.17" r="3.38"/><circle class="cls-1" cx="21.12" cy="64.87" r="3.38"/><circle class="cls-1" cx="35.81" cy="64.87" r="3.38"/><circle class="cls-1" cx="35.81" cy="35.47" r="3.38"/></svg>