<?xml version="1.0" encoding="utf-8"?>
<!-- Generator: Adobe Illustrator 25.1.0, SVG Export Plug-In . SVG Version: 6.00 Build 0)  -->
<svg version="1.1" id="Capa_1" xmlns="http://www.w3.org/2000/svg" xmlns:xlink="http://www.w3.org/1999/xlink" x="0px" y="0px"
	 viewBox="0 0 1597 512" style="enable-background:new 0 0 1597 512;" xml:space="preserve">
<g>
	<path d="M419.7,82.9l-196-81.4c-4.9-2-10.4-2-15.3,0l-196,81.4C4.9,86,0,93.3,0,101.4v98.9C0,336.5,82.3,459,208.4,510.5
		c4.8,2,10.3,2,15.1,0C349.7,459,432,336.5,432,200.3v-98.9C432,93.3,427.1,86,419.7,82.9z M392,200.3c0,115.8-68,222.4-176,270
		c-105.1-46.3-176-151-176-270v-85.6l176-73.1l176,73.1V200.3z M193.9,267.7l86-86c7.8-7.8,20.5-7.8,28.3,0s7.8,20.5,0,28.3
		L208,310.1c-7.8,7.8-20.5,7.8-28.3,0l-55.9-55.9c-7.8-7.8-7.8-20.5,0-28.3s20.5-7.8,28.3,0L193.9,267.7z"/>
</g>
<g>
	<path d="M881.7,82.9l-196-81.4c-4.9-2-10.4-2-15.3,0l-196,81.4C466.9,86,462,93.3,462,101.4v98.9c0,136.2,82.3,258.7,208.4,310.2
		c4.8,2,10.3,2,15.1,0C811.7,459,894,336.5,894,200.3v-98.9C894,93.3,889.1,86,881.7,82.9z M854,200.3c0,115.8-68,222.4-176,270
		c-105.1-46.3-176-151-176-270v-85.6l176-73.1l176,73.1V200.3z M655.9,267.7l86-86c7.8-7.8,20.5-7.8,28.3,0c7.8,7.8,7.8,20.5,0,28.3
		L670,310.1c-7.8,7.8-20.5,7.8-28.3,0l-55.9-55.9c-7.8-7.8-7.8-20.5,0-28.3s20.5-7.8,28.3,0L655.9,267.7z"/>
</g>
<g>
	<path d="M1343.7,82.9l-196-81.4c-4.9-2-10.4-2-15.3,0l-196,81.4C928.9,86,924,93.3,924,101.4v98.9c0,136.2,82.3,258.7,208.4,310.2
		c4.8,2,10.3,2,15.1,0c126.1-51.5,208.4-174,208.4-310.2v-98.9C1356,93.3,1351.1,86,1343.7,82.9z M1316,200.3
		c0,115.8-68,222.4-176,270c-105.1-46.3-176-151-176-270v-85.6l176-73.1l176,73.1V200.3z M1117.9,267.7l86-86
		c7.8-7.8,20.5-7.8,28.3,0s7.8,20.5,0,28.3L1132,310.1c-7.8,7.8-20.5,7.8-28.3,0l-55.9-55.9c-7.8-7.8-7.8-20.5,0-28.3
		c7.8-7.8,20.5-7.8,28.3,0L1117.9,267.7z"/>
</g>
</svg>
