<?xml version="1.0" encoding="utf-8"?>
<!-- Generator: Adobe Illustrator 23.0.6, SVG Export Plug-In . SVG Version: 6.00 Build 0)  -->
<svg version="1.1" id="Layer_1" xmlns="http://www.w3.org/2000/svg" xmlns:xlink="http://www.w3.org/1999/xlink" x="0px" y="0px"
	 viewBox="0 0 480 480" style="enable-background:new 0 0 480 480;" xml:space="preserve">
<style type="text/css">
	.st0{stroke:#000000;stroke-width:5;stroke-miterlimit:10;}
</style>
<g>
	<path class="st0" d="M404.3,90.7H389C385.1,48.4,349.7,16,307.2,16s-77.9,32.4-81.8,74.7h-22.7c-15.6,0-30.7,6.1-41.8,17.1
		l10.5,10.7c8.4-8.2,19.6-12.8,31.3-12.8H240v-7.5c0-37.1,30.1-67.2,67.2-67.2s67.2,30.1,67.2,67.2v7.5h29.9
		c24.7,0,44.8,20.1,44.8,44.8s-20.1,44.8-44.8,44.8h-14.9v14.9h14.9c33,0,59.7-26.7,59.7-59.7S437.3,90.7,404.3,90.7z"/>
	<path d="M322.1,195.2h22.4v14.9h-22.4V195.2z"/>
	<path class="st0" d="M38.4,404.3h91.9l16.8,44.8H90.7V464h134.4v-14.9h-9.8l-16.8-44.8h26.6v-14.9H38.4c-4.1,0-7.5-3.3-7.5-7.5
		v-52.3h194.1v-14.9H30.9V157.9c0-4.1,3.3-7.5,7.5-7.5h246.4c4.1,0,7.5,3.3,7.5,7.5v97.1h14.9v-97.1c0-12.4-10-22.4-22.4-22.4H38.4
		c-12.4,0-22.4,10-22.4,22.4v224C16,394.2,26,404.3,38.4,404.3z M182.6,404.3l16.8,44.8H163l-16.8-44.8H182.6z"/>
	<path d="M374.4,254.9V153.5l17.1,17.1l10.6-10.6l-35.1-35.1l-35.1,35.1l10.6,10.6l17.1-17.1v101.4H374.4z"/>
	<path d="M441.6,269.9H262.4c-12.4,0-22.4,10-22.4,22.4v149.3c0,12.4,10,22.4,22.4,22.4h179.2c12.4,0,22.4-10,22.4-22.4V292.3
		C464,279.9,454,269.9,441.6,269.9z M314.7,449.1h-52.3c-4.1,0-7.5-3.3-7.5-7.5v-37.3h59.7V449.1z M314.7,389.3h-59.7v-44.8h59.7
		V389.3z M314.7,329.6h-59.7v-37.3c0-4.1,3.3-7.5,7.5-7.5h52.3V329.6z M449.1,441.6c0,4.1-3.3,7.5-7.5,7.5h-112v-44.8h119.5V441.6z
		 M449.1,389.3H329.6v-44.8h119.5V389.3z M449.1,329.6H329.6v-44.8h112c4.1,0,7.5,3.3,7.5,7.5V329.6z"/>
	<path d="M352,299.7h14.9v14.9H352V299.7z"/>
	<path d="M381.9,299.7h14.9v14.9h-14.9V299.7z"/>
	<path d="M411.7,299.7h14.9v14.9h-14.9V299.7z"/>
	<path d="M352,359.5h14.9v14.9H352V359.5z"/>
	<path d="M381.9,359.5h14.9v14.9h-14.9V359.5z"/>
	<path d="M411.7,359.5h14.9v14.9h-14.9V359.5z"/>
	<path d="M352,419.2h14.9v14.9H352V419.2z"/>
	<path d="M381.9,419.2h14.9v14.9h-14.9V419.2z"/>
	<path d="M411.7,419.2h14.9v14.9h-14.9V419.2z"/>
	<path d="M172.8,359.5c0,8.2-6.7,14.9-14.9,14.9s-14.9-6.7-14.9-14.9c0-8.2,6.7-14.9,14.9-14.9S172.8,351.2,172.8,359.5z"/>
	<path d="M277.3,299.7h14.9v14.9h-14.9V299.7z"/>
	<path d="M277.3,359.5h14.9v14.9h-14.9V359.5z"/>
	<path d="M277.3,419.2h14.9v14.9h-14.9V419.2z"/>
</g>
</svg>
