<?xml version="1.0" encoding="iso-8859-1"?>
<!-- Generator: Adobe Illustrator 17.1.0, SVG Export Plug-In . SVG Version: 6.00 Build 0)  -->
<!DOCTYPE svg PUBLIC "-//W3C//DTD SVG 1.1//EN" "http://www.w3.org/Graphics/SVG/1.1/DTD/svg11.dtd">
<svg version="1.1" id="Capa_1" xmlns="http://www.w3.org/2000/svg" xmlns:xlink="http://www.w3.org/1999/xlink" x="0px" y="0px"
	 viewBox="0 0 332.941 332.941" style="enable-background:new 0 0 332.941 332.941;" xml:space="preserve">
<path d="M326.513,323.938c0,4.971-4.029,9-9,9h-20.559c-0.092,0.003-0.184,0.004-0.275,0.004c-1.12,0-2.213-0.21-3.229-0.603
	c-0.335-0.129-0.66-0.277-0.975-0.444c0,0.001-0.006-0.004-0.01-0.005c-1.712-0.909-3.129-2.366-3.969-4.211
	c-0.22-0.479-0.397-0.979-0.53-1.498l-20.011-72.133l-59.688-0.169c-0.921,0.029-1.804-0.117-2.646-0.367
	c-1.222-0.361-2.335-0.974-3.279-1.778c-1.075-0.915-1.938-2.082-2.491-3.426c-0.318-0.772-0.532-1.6-0.625-2.463l-8.988-74.474
	c-0.036-0.262-0.061-0.528-0.074-0.798c-0.238-4.681,3.187-8.814,7.911-9.385c0.465-0.056,0.928-0.074,1.381-0.061h1.011
	c0.157,0,0.316,0,0.473,0c16.51,0,18.818,0.37,30.205,9.093l1.175,0.898c0.074,0.058,0.148,0.116,0.222,0.176l43.364,35.351h9.657
	c4.971,0,9,4.029,9,9s-4.029,9-9,9h-12.795c-1.336,0.01-2.683-0.275-3.93-0.869c-0.004-0.002-0.007-0.003-0.01-0.005
	c-0.004-0.001-0.007-0.003-0.011-0.005c-0.005-0.003-0.011-0.005-0.016-0.008c-0.001,0-0.002,0-0.002-0.001
	c-0.661-0.318-1.278-0.716-1.837-1.179l-45.687-37.244l-1.077-0.825c-4.084-3.128-5.799-4.413-7.254-4.832
	c-0.824-0.236-2.019-0.371-3.628-0.449l6.84,56.673l58.673,0.166c4.034,0.012,7.568,2.706,8.647,6.594l20.05,72.276h13.986
	C322.483,314.938,326.513,318.967,326.513,323.938z M78.608,314.938H63.294v-167.63c0-4.971-4.029-9-9-9s-9,4.029-9,9V323.67
	c-0.003,0.089-0.004,0.178-0.004,0.268c0,3.485,1.981,6.508,4.879,8.003c1.235,0.639,2.638,0.999,4.125,0.999
	c0.064,0,0.128-0.001,0.191-0.002h24.123c4.971,0,9-4.029,9-9S83.579,314.938,78.608,314.938z M262.738,277.626
	c-4.516-2.073-9.86-0.094-11.935,4.423c-8.357,18.2-25.93,30.594-45.858,32.342c-1.651,0.146-3.288,0.216-4.915,0.216
	c-28.572-0.002-52.985-21.923-55.53-50.913c-1.998-22.795,10.455-44.887,30.987-54.972c4.462-2.191,6.302-7.585,4.11-12.046
	c-2.191-4.462-7.586-6.304-12.046-4.11c-27.156,13.339-43.626,42.555-40.983,72.701c3.366,38.348,35.654,67.341,73.448,67.341
	c2.15,0,4.32-0.094,6.502-0.285c26.355-2.313,49.593-18.698,60.643-42.762C269.235,285.043,267.255,279.7,262.738,277.626z
	 M159.606,108.899c0-20.693,16.834-37.529,37.526-37.529c20.693,0,37.529,16.836,37.529,37.529s-16.836,37.528-37.529,37.528
	C176.44,146.428,159.606,129.593,159.606,108.899z M177.606,108.899c0,10.768,8.76,19.528,19.526,19.528
	c10.769,0,19.529-8.761,19.529-19.528c0-10.769-8.761-19.529-19.529-19.529C186.365,89.37,177.606,98.131,177.606,108.899z
	 M10.227,37.528C10.227,16.835,27.062,0,47.754,0c20.693,0,37.529,16.835,37.529,37.528S68.447,75.057,47.754,75.057
	C27.062,75.057,10.227,58.222,10.227,37.528z M28.227,37.528c0,10.768,8.76,19.528,19.527,19.528
	c10.769,0,19.529-8.761,19.529-19.528S58.523,18,47.754,18C36.986,18,28.227,26.761,28.227,37.528z M80.75,116.317l70.508,64.42
	c3.67,3.354,9.363,3.096,12.715-0.574c3.353-3.669,3.096-9.362-0.574-12.715l-70.76-64.65c-0.161-0.147-0.327-0.288-0.499-0.424
	c-17.783-14.018-40.022-17.333-58.041-8.649c-17.238,8.309-27.191,25.996-27.306,48.527l-0.364,70.612
	c-0.025,4.971,3.983,9.021,8.953,9.047c0.017,0,0.032,0,0.048,0c4.948,0,8.974-3.999,8.999-8.953l0.364-70.613
	c0.079-15.614,6.159-27.122,17.121-32.405C53.427,104.393,68.64,106.897,80.75,116.317z"/>
<g>
</g>
<g>
</g>
<g>
</g>
<g>
</g>
<g>
</g>
<g>
</g>
<g>
</g>
<g>
</g>
<g>
</g>
<g>
</g>
<g>
</g>
<g>
</g>
<g>
</g>
<g>
</g>
<g>
</g>
</svg>
