<?xml version="1.0" encoding="utf-8"?>
<!-- Generator: Adobe Illustrator 23.0.6, SVG Export Plug-In . SVG Version: 6.00 Build 0)  -->
<svg version="1.1" id="Layer_1" xmlns="http://www.w3.org/2000/svg" xmlns:xlink="http://www.w3.org/1999/xlink" x="0px" y="0px"
	 viewBox="0 0 225.1 76.6" style="enable-background:new 0 0 225.1 76.6;" xml:space="preserve">
<style type="text/css">
	.st0{fill-rule:evenodd;clip-rule:evenodd;fill:#AE302B;}
	.st1{fill:#020000;}
	.st2{fill:#616C75;}
</style>
<g>
	<g>
		<path class="st0" d="M24.5,45.9C23.9,25.8,69.9,8.5,127,7c16.7-0.3,32.5,0.6,46.4,2.8c-18.1-5.1-41-8.2-66.1-8.2
			C49.2,1.4,1.9,18.3,1.9,39.2c0,15.7,26.9,29.2,65.1,35C41.4,68.1,24.8,58,24.5,45.9z"/>
		<g>
			<g>
				<g>
					<path class="st1" d="M39.2,43.2l3.4-0.4c0.1,1.6,0.6,2.6,1.2,3.4c0.6,0.7,1.5,1,2.5,1s1.9-0.3,2.5-0.9c0.6-0.6,0.7-1.5,0.7-2.3
						c0-0.6-0.1-1-0.3-1.5c-0.1-0.3-0.6-0.7-1.2-1c-0.3-0.1-1.3-0.4-2.6-1c-1.8-0.6-3.1-1.5-3.8-2.3c-1-1.3-1.5-2.9-1.5-4.7
						c0-1.2,0.1-2.3,0.7-3.4c0.4-1,1.2-1.9,2.1-2.3c0.9-0.6,2.1-0.7,3.4-0.7c2.1,0,3.7,0.6,4.7,1.9s1.6,3.1,1.6,5.1l-3.4,0.1
						c-0.1-1.2-0.4-2.1-0.9-2.6c-0.4-0.4-1.2-0.7-2.2-0.7s-1.8,0.3-2.3,0.9c-0.3,0.3-0.4,0.9-0.4,1.5s0.1,1,0.4,1.5
						c0.4,0.4,1.5,1,3.1,1.6s2.9,1,3.5,1.8c0.7,0.6,1.3,1.3,1.9,2.3c0.4,1,0.6,2.2,0.6,3.7c0,1.3-0.3,2.6-0.7,3.8s-1.3,2.1-2.2,2.6
						c-0.9,0.6-2.2,0.9-3.5,0.9c-2.1,0-3.7-0.7-4.8-2.1C40.2,47.9,39.5,45.9,39.2,43.2z"/>
					<path class="st1" d="M61.2,33.8v3.5H59v6.9c0,1.3,0,2.2,0,2.5s0.1,0.4,0.3,0.6c0.1,0.1,0.3,0.1,0.6,0.1s0.7-0.1,1.3-0.4
						l0.3,3.5c-0.7,0.4-1.6,0.6-2.5,0.6c-0.6,0-1-0.1-1.6-0.4c-0.4-0.3-0.7-0.6-1-1c-0.1-0.4-0.3-1-0.4-1.8c0-0.4,0-1.6,0-3.2v-7.3
						h-1.5v-3.5H56v-3.4l3.2-2.6v6C59.1,33.8,61.2,33.8,61.2,33.8z"/>
					<path class="st1" d="M66.3,50.9h-3.2v-17H66v2.5c0.4-1.2,0.9-1.9,1.3-2.2s0.9-0.6,1.3-0.6c0.7,0,1.5,0.3,2.1,0.9l-1,4
						c-0.4-0.4-1-0.7-1.5-0.7c-0.4,0-0.7,0.1-1.2,0.4c-0.3,0.3-0.6,1-0.7,1.9S66,42.9,66,45.8L66.3,50.9L66.3,50.9z"/>
					<path class="st1" d="M74.9,39.1L72,38.4c0.3-1.6,0.9-2.9,1.6-3.7c0.7-0.7,2.1-1.2,3.5-1.2s2.5,0.1,3.2,0.7
						c0.6,0.4,1.2,1,1.5,1.8c0.1,0.7,0.4,2.1,0.4,4v5.3c0,1.5,0,2.6,0.1,3.4c0,0.7,0.3,1.5,0.6,2.3h-3.2c0-0.3-0.1-0.7-0.3-1.3
						c0-0.3,0-0.4-0.1-0.4c-0.6,0.7-1.2,1.3-1.8,1.6c-0.6,0.3-1.3,0.6-2.1,0.6c-1.2,0-2.2-0.4-2.9-1.5c-0.7-0.9-1-2.2-1-3.5
						c0-0.9,0.1-1.8,0.4-2.6c0.3-0.7,0.7-1.3,1.3-1.8c0.6-0.4,1.5-0.7,2.5-1c1.5-0.3,2.5-0.7,3.1-1v-0.4c0-0.9-0.1-1.5-0.4-1.9
						c-0.3-0.3-0.9-0.6-1.8-0.6c-0.6,0-1,0.1-1.3,0.4C75.3,37.8,75,38.2,74.9,39.1z M79.1,42.8c-0.4,0.1-1,0.4-1.9,0.7
						s-1.5,0.4-1.8,0.7c-0.4,0.4-0.6,0.9-0.6,1.6c0,0.6,0.1,1.2,0.4,1.6c0.3,0.4,0.7,0.7,1.3,0.7c0.6,0,1.2-0.3,1.6-0.7
						c0.3-0.4,0.6-0.9,0.7-1.5c0-0.3,0.1-1.2,0.1-2.2L79.1,42.8L79.1,42.8z"/>
					<path class="st1" d="M90.9,33.8v3.5h-2.2v6.9c0,1.3,0,2.2,0,2.5c0,0.1,0.1,0.4,0.3,0.6c0.1,0.1,0.3,0.1,0.6,0.1
						c0.3,0,0.7-0.1,1.3-0.4l0.3,3.5c-0.7,0.4-1.6,0.6-2.5,0.6c-0.6,0-1-0.1-1.6-0.4c-0.4-0.3-0.7-0.6-1-1c-0.1-0.4-0.3-1-0.4-1.8
						c0-0.4,0-1.6,0-3.2v-7.3h-1.5v-3.5h1.5v-3.4l3.2-2.6v6C88.8,33.8,90.9,33.8,90.9,33.8z"/>
					<path class="st1" d="M100.1,45.4l3.2,0.7c-0.4,1.6-1,2.9-1.9,3.7c-0.9,0.9-2.1,1.3-3.4,1.3c-2.1,0-3.7-0.9-4.7-2.9
						c-0.7-1.6-1.2-3.5-1.2-5.9c0-2.8,0.4-5,1.6-6.6c1-1.6,2.3-2.3,4-2.3c1.8,0,3.2,0.9,4.3,2.5c1,1.6,1.5,4.3,1.5,7.6h-7.9
						c0,1.3,0.3,2.3,0.7,3.1c0.4,0.7,1,1,1.9,1c0.4,0,0.9-0.1,1.3-0.6C99.8,46.9,100,46.3,100.1,45.4z M100.3,40.9
						c0-1.3-0.3-2.3-0.7-2.9c-0.4-0.6-1-1-1.6-1c-0.7,0-1.3,0.3-1.8,1c-0.4,0.7-0.6,1.6-0.6,2.9H100.3L100.3,40.9z"/>
					<path class="st1" d="M105.7,52l3.7,0.6c0,0.6,0.1,1,0.4,1.2c0.3,0.3,0.7,0.4,1.5,0.4c0.9,0,1.5-0.1,1.9-0.4
						c0.3-0.1,0.4-0.6,0.6-1.2c0-0.3,0.1-1,0.1-2.1V48c-0.9,1.9-2.2,2.8-3.5,2.8c-1.6,0-2.9-0.9-3.8-2.9c-0.7-1.5-1-3.5-1-5.7
						c0-2.9,0.4-5,1.5-6.6c0.9-1.5,2.2-2.2,3.5-2.2c1.5,0,2.8,0.9,3.7,2.8v-2.3h3.1v15.3c0,2.1-0.1,3.5-0.3,4.6
						c-0.1,1-0.6,1.8-1,2.3c-0.4,0.6-1,1-1.8,1.3c-0.7,0.3-1.6,0.4-2.6,0.4c-2.1,0-3.5-0.4-4.4-1.5c-0.9-1-1.3-2.2-1.3-3.7
						C105.7,52.5,105.7,52.2,105.7,52z M108.6,42c0,1.8,0.1,3.1,0.7,4s1,1.3,1.9,1.3c0.7,0,1.5-0.4,2.1-1.3c0.6-0.9,0.7-2.2,0.7-3.8
						c0-1.8-0.3-3.1-0.7-4s-1.2-1.3-1.9-1.3c-0.7,0-1.3,0.4-1.9,1.2C108.9,39.1,108.6,40.3,108.6,42z"/>
					<path class="st1" d="M120.2,31.6v-4.3h3.2v4.1h-3.2V31.6z M120.2,50.9v-17h3.2v17H120.2z"/>
					<path class="st1" d="M137.3,39l-3.2,0.7c0-0.9-0.3-1.6-0.7-2.1c-0.3-0.4-0.9-0.6-1.5-0.6c-0.7,0-1.5,0.3-1.9,1.2
						c-0.4,0.7-0.7,2.1-0.7,3.8c0,2.1,0.1,3.5,0.7,4.3c0.6,0.7,1.2,1.2,1.9,1.2c0.6,0,1-0.1,1.5-0.7c0.4-0.4,0.6-1.3,0.7-2.5
						l3.2,0.7c-0.3,2.1-0.9,3.5-1.9,4.6c-0.9,1-2.2,1.6-3.7,1.6c-1.8,0-3.2-0.7-4.3-2.3c-1-1.6-1.6-3.7-1.6-6.6c0-2.9,0.4-5,1.6-6.6
						c1-1.6,2.5-2.3,4.3-2.3c1.5,0,2.6,0.4,3.5,1.3C136.4,35.7,137,37.1,137.3,39z"/>
				</g>
				<g>
					<path class="st2" d="M138.6,42.5l3.8-0.4c0,1.2,0.1,2.1,0.4,2.6c0.4,1,1,1.5,1.8,1.5c0.6,0,1-0.1,1.3-0.7
						c0.3-0.4,0.4-1,0.4-1.8c0-0.6-0.1-1.2-0.4-1.6c-0.3-0.4-1-0.9-2.1-1.3c-1.8-0.7-3.1-1.8-3.7-2.9c-0.7-1.2-1.2-2.8-1.2-4.7
						c0-1.2,0.1-2.3,0.6-3.5c0.3-1.2,0.9-1.9,1.8-2.6c0.7-0.6,1.9-0.9,3.2-0.9c1.6,0,2.9,0.6,3.8,1.8c0.9,1.2,1.3,2.9,1.6,5.4
						l-3.8,0.4c0-1-0.3-1.9-0.6-2.3c-0.3-0.4-0.7-0.7-1.3-0.7c-0.4,0-0.7,0.1-1,0.6c-0.3,0.4-0.3,0.7-0.3,1.3c0,0.3,0,0.7,0.3,1
						c0.1,0.3,0.6,0.6,1.3,0.9c1.8,0.7,3.1,1.5,3.7,2.2c0.7,0.7,1.3,1.6,1.6,2.6s0.4,2.2,0.4,3.5c0,1.5-0.1,2.9-0.7,4.3
						c-0.4,1.3-1,2.3-1.9,2.9c-0.9,0.6-1.9,1-3.1,1c-2.2,0-3.7-0.7-4.6-2.3C139.2,46.9,138.7,45,138.6,42.5z"/>
					<path class="st2" d="M151.2,32.9h3.8l1.9,11.6l1.8-11.6h3.5l-3.8,18.7c-0.4,2.2-0.9,3.5-1.3,4.3c-0.6,1-1.6,1.6-2.9,1.6
						c-0.4,0-1.3-0.1-2.3-0.3l-0.3-4.7c0.4,0.3,1,0.4,1.8,0.4c0.4,0,0.7-0.1,1-0.6c0.3-0.3,0.4-1,0.6-1.9L151.2,32.9z"/>
					<path class="st2" d="M162.7,45.6l3.5-0.6c0.1,0.7,0.3,1.3,0.6,1.8c0.3,0.3,0.6,0.4,1,0.4s0.9-0.1,1.2-0.6
						c0.1-0.3,0.3-0.6,0.3-1s-0.1-0.9-0.4-1.2c-0.1-0.1-0.7-0.4-1.6-0.7c-1.2-0.4-2.2-0.7-2.6-1.2c-0.4-0.3-0.9-0.9-1.2-1.8
						c-0.3-0.7-0.4-1.8-0.4-2.8c0-1.2,0.1-2.2,0.6-2.9c0.3-0.9,0.9-1.5,1.5-1.9s1.5-0.6,2.5-0.6c1.2,0,1.9,0.1,2.5,0.4
						c0.4,0.3,1,0.7,1.3,1.5c0.3,0.7,0.6,1.6,0.9,2.8l-3.5,0.6c0-0.6-0.1-0.9-0.4-1.2s-0.6-0.4-1-0.4s-0.7,0.1-0.9,0.4
						c-0.1,0.3-0.3,0.6-0.3,1s0.1,0.7,0.3,0.9c0.1,0.1,0.7,0.4,1.5,0.6c1.2,0.1,2.1,0.6,2.6,1c0.6,0.4,1,1,1.3,1.9s0.4,1.8,0.4,2.8
						s-0.1,2.1-0.4,2.9c-0.3,0.9-0.9,1.8-1.6,2.3c-0.7,0.6-1.6,0.9-2.9,0.9c-1.8,0-2.9-0.4-3.7-1.3
						C162.8,48.8,162.8,47.3,162.7,45.6z"/>
					<path class="st2" d="M178.7,26.3v6.6h2.1v4.8h-2.1V44c0,0.7,0,1.2,0.1,1.5s0.3,0.6,0.6,0.6s0.6-0.1,1.2-0.4l0.3,4.6
						c-0.9,0.3-1.8,0.6-2.5,0.6c-0.9,0-1.6-0.1-2.1-0.6c-0.4-0.4-0.7-1-0.9-1.9c-0.1-0.9-0.3-2.3-0.3-4.3v-6.2h-1.3v-4.8h1.3v-3.2
						L178.7,26.3z"/>
					<path class="st2" d="M192.9,43.4h-7.2c0,1,0.1,1.9,0.4,2.3c0.3,0.7,0.7,1.2,1.3,1.2c0.3,0,0.7-0.1,1-0.4c0.1-0.1,0.4-0.6,0.6-1
						l3.5,0.6c-0.6,1.8-1.2,3.1-1.9,3.7c-0.7,0.7-1.9,1.2-3.4,1.2c-1.2,0-2.2-0.3-2.9-1c-0.7-0.6-1.3-1.6-1.8-3.1
						c-0.4-1.5-0.7-3.1-0.7-5c0-2.8,0.4-5,1.5-6.6s2.2-2.5,3.8-2.5c1.3,0,2.5,0.3,3.2,1.2c0.7,0.7,1.3,1.9,1.8,3.4s0.6,3.4,0.6,5.6
						L192.9,43.4L192.9,43.4z M189.3,40.1c0-1.3-0.3-2.2-0.6-2.8s-0.7-0.9-1.2-0.9c-0.6,0-1,0.4-1.3,1.3c-0.1,0.4-0.3,1.3-0.4,2.3
						h3.5V40.1z"/>
					<path class="st2" d="M194.6,32.9h3.4v2.5c0.4-1,1-1.8,1.5-2.3c0.4-0.4,1-0.6,1.8-0.6s1.3,0.1,1.8,0.7c0.4,0.4,0.7,1.2,1,2.2
						c0.6-1.2,1-1.9,1.6-2.3c0.4-0.4,1-0.6,1.8-0.6c1,0,1.8,0.6,2.3,1.6c0.6,1,0.9,2.9,0.9,5.3v10.9H207v-10c0-0.7,0-1.3-0.1-1.8
						c-0.1-0.6-0.6-0.9-0.9-0.9c-0.4,0-0.7,0.3-1,0.9c-0.3,0.6-0.3,1.5-0.3,2.8v9h-3.5v-9.5c0-0.7,0-1.3,0-1.6c0-0.4-0.1-0.7-0.4-1
						c-0.1-0.3-0.4-0.4-0.6-0.4c-0.4,0-0.7,0.3-1,0.9c-0.3,0.6-0.4,1.5-0.4,2.9v9h-3.5L194.6,32.9L194.6,32.9z"/>
					<path class="st2" d="M212,45.6l3.5-0.6c0.1,0.7,0.3,1.3,0.6,1.8c0.3,0.4,0.6,0.4,1,0.4s0.9-0.1,1.2-0.6c0.1-0.3,0.3-0.6,0.3-1
						s-0.1-0.9-0.4-1.2c-0.1-0.1-0.7-0.4-1.6-0.7c-1.2-0.4-2.2-0.7-2.6-1.2c-0.4-0.3-0.9-0.9-1.2-1.8c-0.3-0.7-0.4-1.8-0.4-2.8
						c0-1.2,0.1-2.2,0.6-2.9c0.3-0.9,0.9-1.5,1.5-1.9s1.5-0.6,2.5-0.6c1.2,0,1.9,0.1,2.5,0.4c0.4,0.3,1,0.7,1.3,1.5
						c0.3,0.7,0.6,1.6,0.9,2.8l-3.5,0.6c0-0.6-0.1-0.9-0.4-1.2c-0.3-0.3-0.6-0.4-1-0.4s-0.7,0.1-0.9,0.4c-0.1,0.3,0,0.6,0,1
						s0.1,0.7,0.3,0.9c0.1,0.1,0.7,0.4,1.5,0.6c1.2,0.1,2.1,0.6,2.6,1c0.6,0.4,1,1,1.3,1.9s0.4,1.8,0.4,2.8s-0.1,2.1-0.4,2.9
						c-0.3,0.9-0.9,1.8-1.6,2.3c-0.7,0.6-1.6,0.9-2.9,0.9c-1.8,0-2.9-0.4-3.7-1.3C212.8,48.7,212.2,47.3,212,45.6z"/>
				</g>
			</g>
		</g>
	</g>
</g>
<g>
	<path class="st2" d="M77.6,67.7v-2.1h4.4v4.8c-0.4,0.5-1.1,1-1.9,1.3c-0.8,0.4-1.6,0.6-2.4,0.6c-1,0-1.9-0.2-2.6-0.7
		c-0.8-0.5-1.4-1.2-1.8-2.2c-0.4-1-0.7-2.1-0.7-3.4c0-1.3,0.2-2.5,0.7-3.4c0.4-1,1-1.7,1.7-2.1s1.6-0.7,2.6-0.7
		c1.2,0,2.2,0.3,2.9,0.9c0.7,0.6,1.2,1.5,1.4,2.7l-2,0.5c-0.1-0.6-0.4-1.1-0.8-1.4c-0.4-0.3-0.9-0.5-1.4-0.5c-0.9,0-1.6,0.3-2.1,1
		c-0.5,0.7-0.8,1.7-0.8,3c0,1.5,0.3,2.6,0.9,3.3c0.5,0.7,1.2,1,2,1c0.4,0,0.8-0.1,1.2-0.3c0.4-0.2,0.8-0.4,1.1-0.8v-1.5H77.6z"/>
	<path class="st2" d="M83.3,67.6c0-0.9,0.2-1.7,0.5-2.4c0.3-0.7,0.8-1.2,1.3-1.6s1.2-0.5,1.9-0.5c1.2,0,2.1,0.5,2.8,1.4
		c0.7,0.9,1,2,1,3.2c0,0.9-0.2,1.7-0.5,2.5c-0.3,0.7-0.8,1.3-1.4,1.7c-0.6,0.4-1.2,0.6-1.9,0.6c-1.1,0-2-0.4-2.7-1.2
		C83.7,70.3,83.3,69.1,83.3,67.6z M85.3,67.7c0,0.9,0.2,1.6,0.5,2c0.4,0.5,0.8,0.7,1.3,0.7c0.5,0,0.9-0.2,1.2-0.7
		c0.3-0.5,0.5-1.1,0.5-2c0-0.9-0.2-1.5-0.5-2C88,65.2,87.6,65,87.1,65c-0.5,0-0.9,0.2-1.2,0.7C85.5,66.2,85.3,66.8,85.3,67.7z"/>
	<path class="st2" d="M94.4,72.1l-2.9-8.8h2l1.4,4.5l0.4,1.5l0.4-1.5l1.4-4.5h2l-2.9,8.8H94.4z"/>
	<path class="st2" d="M104.4,69.3l1.9,0.4c-0.3,0.9-0.7,1.5-1.2,2c-0.5,0.4-1.2,0.6-2,0.6c-1.1,0-1.9-0.4-2.5-1.1
		c-0.7-0.8-1-2-1-3.5c0-1.5,0.3-2.7,1-3.5c0.6-0.7,1.4-1.1,2.3-1.1c1,0,1.9,0.4,2.4,1.1c0.7,0.9,1,2.2,1,3.9l0,0.3h-4.8
		c0,0.7,0.2,1.2,0.5,1.6c0.3,0.4,0.7,0.6,1.1,0.6C103.7,70.6,104.1,70.2,104.4,69.3z M104.5,67c0-0.7-0.2-1.2-0.4-1.6
		c-0.3-0.3-0.6-0.5-1-0.5c-0.4,0-0.7,0.2-1,0.5c-0.3,0.4-0.4,0.9-0.4,1.5H104.5z"/>
	<path class="st2" d="M109.8,72.1h-1.9v-8.8h1.8v1.3c0.3-0.6,0.6-1,0.8-1.2c0.2-0.2,0.5-0.3,0.8-0.3c0.4,0,0.9,0.1,1.3,0.4l-0.6,2
		c-0.3-0.3-0.6-0.4-0.9-0.4c-0.3,0-0.5,0.1-0.7,0.3c-0.2,0.2-0.3,0.6-0.4,1.1c-0.1,0.5-0.1,1.5-0.1,2.8V72.1z"/>
	<path class="st2" d="M120,72.1H118v-4.5c0-0.9,0-1.5-0.1-1.8c-0.1-0.3-0.2-0.5-0.4-0.7c-0.2-0.2-0.4-0.2-0.7-0.2
		c-0.3,0-0.6,0.1-0.9,0.3c-0.3,0.2-0.4,0.5-0.5,0.9s-0.2,1.1-0.2,2.1v4h-1.9v-8.8h1.8v1.3c0.3-0.5,0.7-0.9,1.1-1.1
		c0.4-0.2,0.8-0.4,1.3-0.4c0.6,0,1,0.1,1.4,0.4c0.4,0.3,0.7,0.7,0.8,1.1c0.1,0.5,0.2,1.1,0.2,2V72.1z"/>
	<path class="st2" d="M121.8,63.3h1.8v1.2c0.3-0.5,0.7-0.8,1-1.1c0.4-0.2,0.8-0.4,1.2-0.4c0.5,0,0.9,0.1,1.2,0.3
		c0.3,0.2,0.6,0.6,0.8,1.1c0.3-0.5,0.7-0.8,1-1.1c0.4-0.2,0.8-0.3,1.2-0.3c0.5,0,0.9,0.1,1.3,0.4c0.4,0.2,0.6,0.6,0.8,1
		c0.2,0.4,0.3,1.1,0.3,2v5.6h-1.9v-5c0-0.9-0.1-1.5-0.2-1.8c-0.2-0.3-0.4-0.4-0.8-0.4c-0.4,0-0.8,0.2-1,0.6
		c-0.3,0.4-0.4,1.2-0.4,2.4v4.2h-1.9v-4.8c0-1-0.1-1.6-0.2-1.9c-0.1-0.4-0.4-0.5-0.8-0.5c-0.3,0-0.5,0.1-0.8,0.3
		c-0.2,0.2-0.4,0.5-0.5,0.8c-0.1,0.4-0.2,1-0.2,1.8v4.3h-1.9V63.3z"/>
	<path class="st2" d="M138.6,69.3l1.9,0.4c-0.3,0.9-0.7,1.5-1.2,2c-0.5,0.4-1.2,0.6-2,0.6c-1.1,0-1.9-0.4-2.5-1.1
		c-0.7-0.8-1-2-1-3.5c0-1.5,0.3-2.7,1-3.5c0.6-0.7,1.3-1.1,2.3-1.1c1,0,1.9,0.4,2.4,1.1c0.7,0.9,1,2.2,1,3.9l0,0.3h-4.8
		c0,0.7,0.2,1.2,0.5,1.6c0.3,0.4,0.7,0.6,1.1,0.6C138,70.6,138.4,70.2,138.6,69.3z M138.7,67c0-0.7-0.2-1.2-0.4-1.6
		c-0.3-0.3-0.6-0.5-1-0.5c-0.4,0-0.7,0.2-1,0.5c-0.3,0.4-0.4,0.9-0.4,1.5H138.7z"/>
	<path class="st2" d="M148.7,72.1h-1.9v-4.5c0-0.9,0-1.5-0.1-1.8c-0.1-0.3-0.2-0.5-0.4-0.7c-0.2-0.2-0.4-0.2-0.7-0.2
		c-0.3,0-0.6,0.1-0.9,0.3c-0.3,0.2-0.4,0.5-0.5,0.9c-0.1,0.4-0.2,1.1-0.2,2.1v4h-1.9v-8.8h1.8v1.3c0.3-0.5,0.7-0.9,1.1-1.1
		c0.4-0.2,0.8-0.4,1.3-0.4c0.6,0,1,0.1,1.4,0.4c0.4,0.3,0.7,0.7,0.8,1.1c0.1,0.5,0.2,1.1,0.2,2V72.1z"/>
	<path class="st2" d="M154,63.3v1.9h-1.3v3.6c0,0.8,0,1.2,0.1,1.3c0.1,0.2,0.2,0.3,0.5,0.3c0.2,0,0.4-0.1,0.8-0.2l0.2,1.8
		c-0.4,0.2-0.9,0.3-1.5,0.3c-0.5,0-0.9-0.1-1.2-0.3c-0.3-0.2-0.5-0.6-0.6-1c-0.1-0.3-0.1-1-0.1-2v-3.8h-0.9v-1.9h0.9v-1.8l1.9-1.4
		v3.1H154z"/>
	<path class="st2" d="M158.7,68.2l2-0.2c0.2,1.6,0.9,2.3,2.2,2.3c0.6,0,1.1-0.2,1.4-0.5c0.4-0.3,0.5-0.7,0.5-1.2
		c0-0.3-0.1-0.5-0.2-0.7c-0.1-0.2-0.3-0.4-0.6-0.5c-0.3-0.1-0.9-0.3-1.8-0.6c-0.9-0.3-1.5-0.5-1.9-0.8c-0.4-0.3-0.7-0.7-1-1.2
		c-0.2-0.5-0.4-1-0.4-1.6c0-0.7,0.2-1.3,0.5-1.8c0.3-0.5,0.7-0.9,1.3-1.2c0.5-0.3,1.2-0.4,2-0.4c1.2,0,2.1,0.3,2.8,1s1,1.5,1,2.7
		l-2,0.1c-0.1-0.7-0.3-1.1-0.6-1.4c-0.3-0.3-0.7-0.4-1.3-0.4c-0.5,0-1,0.1-1.3,0.3c-0.3,0.2-0.4,0.5-0.4,0.8c0,0.3,0.1,0.6,0.4,0.8
		c0.3,0.2,0.9,0.5,1.8,0.7c1,0.3,1.8,0.6,2.2,0.9c0.5,0.3,0.8,0.7,1,1.3c0.2,0.5,0.4,1.1,0.4,1.9c0,1.1-0.3,1.9-1,2.7
		c-0.7,0.7-1.7,1.1-3.1,1.1C160.4,72.3,159,70.9,158.7,68.2z"/>
	<path class="st2" d="M168.1,67.6c0-0.9,0.2-1.7,0.5-2.4c0.3-0.7,0.8-1.2,1.3-1.6c0.6-0.4,1.2-0.5,1.9-0.5c1.2,0,2.1,0.5,2.8,1.4
		c0.7,0.9,1,2,1,3.2c0,0.9-0.2,1.7-0.5,2.5c-0.3,0.7-0.8,1.3-1.4,1.7c-0.6,0.4-1.2,0.6-1.9,0.6c-1.1,0-2-0.4-2.7-1.2
		C168.5,70.3,168.1,69.1,168.1,67.6z M170.1,67.7c0,0.9,0.2,1.6,0.5,2s0.8,0.7,1.3,0.7c0.5,0,0.9-0.2,1.2-0.7c0.3-0.5,0.5-1.1,0.5-2
		c0-0.9-0.2-1.5-0.5-2c-0.4-0.5-0.8-0.7-1.3-0.7c-0.5,0-0.9,0.2-1.2,0.7C170.3,66.2,170.1,66.8,170.1,67.7z"/>
	<path class="st2" d="M177.1,72.1V60h1.9v12.2H177.1z"/>
	<path class="st2" d="M185.8,72.1v-1.3c-0.3,0.5-0.6,0.9-1,1.1c-0.4,0.3-0.9,0.4-1.4,0.4c-0.5,0-0.9-0.1-1.3-0.4
		c-0.4-0.2-0.7-0.6-0.8-1.1s-0.3-1.1-0.3-2v-5.6h1.9v4c0,1.2,0,1.9,0.1,2.2c0.1,0.3,0.2,0.6,0.4,0.7c0.2,0.2,0.4,0.3,0.7,0.3
		c0.3,0,0.6-0.1,0.9-0.3c0.3-0.2,0.4-0.5,0.5-0.9c0.1-0.4,0.1-1.1,0.1-2.3v-3.7h1.9v8.8H185.8z"/>
	<path class="st2" d="M192.9,63.3v1.9h-1.3v3.6c0,0.8,0,1.2,0.1,1.3c0.1,0.2,0.2,0.3,0.5,0.3c0.2,0,0.4-0.1,0.8-0.2L193,72
		c-0.4,0.2-0.9,0.3-1.5,0.3c-0.5,0-0.9-0.1-1.2-0.3c-0.3-0.2-0.5-0.6-0.6-1c-0.1-0.3-0.1-1-0.1-2v-3.8h-0.9v-1.9h0.9v-1.8l1.9-1.4
		v3.1H192.9z"/>
	<path class="st2" d="M194.2,62.1V60h1.9v2.2H194.2z M194.2,72.1v-8.8h1.9v8.8H194.2z"/>
	<path class="st2" d="M197.7,67.6c0-0.9,0.2-1.7,0.5-2.4c0.3-0.7,0.8-1.2,1.3-1.6c0.6-0.4,1.2-0.5,1.9-0.5c1.2,0,2.1,0.5,2.8,1.4
		c0.7,0.9,1,2,1,3.2c0,0.9-0.2,1.7-0.5,2.5c-0.3,0.7-0.8,1.3-1.4,1.7c-0.6,0.4-1.2,0.6-1.9,0.6c-1.1,0-2-0.4-2.7-1.2
		C198,70.3,197.7,69.1,197.7,67.6z M199.6,67.7c0,0.9,0.2,1.6,0.5,2s0.8,0.7,1.3,0.7c0.5,0,0.9-0.2,1.2-0.7c0.3-0.5,0.5-1.1,0.5-2
		c0-0.9-0.2-1.5-0.5-2c-0.4-0.5-0.8-0.7-1.3-0.7c-0.5,0-0.9,0.2-1.2,0.7C199.8,66.2,199.6,66.8,199.6,67.7z"/>
	<path class="st2" d="M213.3,72.1h-1.9v-4.5c0-0.9,0-1.5-0.1-1.8c-0.1-0.3-0.2-0.5-0.4-0.7c-0.2-0.2-0.4-0.2-0.7-0.2
		c-0.3,0-0.6,0.1-0.9,0.3c-0.3,0.2-0.4,0.5-0.5,0.9c-0.1,0.4-0.2,1.1-0.2,2.1v4h-1.9v-8.8h1.8v1.3c0.3-0.5,0.7-0.9,1.1-1.1
		c0.4-0.2,0.8-0.4,1.3-0.4c0.6,0,1,0.1,1.4,0.4c0.4,0.3,0.7,0.7,0.8,1.1c0.1,0.5,0.2,1.1,0.2,2V72.1z"/>
	<path class="st2" d="M214.5,69.6l1.9-0.4c0.2,0.9,0.7,1.4,1.6,1.4c0.5,0,0.8-0.1,1-0.3c0.2-0.2,0.3-0.4,0.3-0.7
		c0-0.2,0-0.3-0.1-0.5c-0.1-0.1-0.3-0.2-0.6-0.3c-1.6-0.4-2.6-0.8-3-1.2c-0.5-0.5-0.8-1.1-0.8-1.9c0-0.8,0.3-1.5,0.8-2
		c0.5-0.5,1.3-0.7,2.3-0.7c0.9,0,1.7,0.2,2.2,0.6c0.5,0.4,0.8,1,1,1.8l-1.8,0.4c-0.2-0.7-0.6-1.1-1.4-1.1c-0.5,0-0.8,0.1-1,0.2
		c-0.2,0.1-0.3,0.3-0.3,0.5c0,0.2,0.1,0.4,0.3,0.5c0.2,0.1,0.8,0.3,1.7,0.6c1.1,0.3,1.8,0.7,2.2,1.1c0.4,0.4,0.6,1,0.6,1.7
		c0,0.9-0.3,1.6-0.9,2.1c-0.6,0.6-1.4,0.8-2.4,0.8c-0.9,0-1.7-0.2-2.3-0.7C215.1,71.2,214.7,70.5,214.5,69.6z"/>
</g>
</svg>
