<?xml version="1.0" encoding="utf-8"?>
<!-- Generator: Adobe Illustrator 24.2.0, SVG Export Plug-In . SVG Version: 6.00 Build 0)  -->
<svg version="1.1" id="Layer_1" xmlns="http://www.w3.org/2000/svg" xmlns:xlink="http://www.w3.org/1999/xlink" x="0px" y="0px"
	 viewBox="0 0 220.1 72.6" style="enable-background:new 0 0 220.1 72.6;" xml:space="preserve">
<style type="text/css">
	.st0{fill-rule:evenodd;clip-rule:evenodd;fill:#FFFFFF;}
	.st1{fill:#FFFFFF;}
</style>
<g>
	<path class="st0" d="M19.3,37.8C18.8,20.7,58.1,5.9,106.8,4.6c13.3-0.3,26.5,0.5,39.6,2.4C131,2.6,111.5,0,90,0
		C40.4-0.2,0,14.3,0,32.1C0,45.5,23,57.1,55.6,62C33.7,56.8,19.6,48.2,19.3,37.8z"/>
	<path class="st1" d="M31.9,35.5l2.9-0.3c0,1.1,0.4,2.1,1,2.9c0.5,0.6,1.3,0.9,2.1,0.9c0.8,0,1.6-0.2,2.1-0.8c0.4-0.6,0.7-1.3,0.6-2
		c0-0.4-0.1-0.9-0.3-1.3c-0.2-0.4-0.6-0.7-1-0.9c-0.8-0.2-1.5-0.5-2.2-0.9c-1.2-0.4-2.3-1-3.2-2c-0.9-1.2-1.3-2.6-1.3-4
		c-0.1-1,0.1-2,0.6-2.9c0.3-0.9,1-1.6,1.8-2c0.9-0.5,1.9-0.7,2.9-0.6c1.5-0.1,3,0.5,4,1.6c0.9,1.3,1.4,2.8,1.4,4.4l-2.9,0.1
		c0-0.8-0.3-1.6-0.8-2.2c-0.5-0.4-1.2-0.6-1.9-0.6c-0.7-0.1-1.5,0.2-2,0.8c-0.3,0.4-0.4,0.8-0.3,1.3c0,0.5,0.1,0.9,0.3,1.3
		c0.8,0.6,1.7,1.1,2.6,1.4c1.4,0.5,2.5,0.9,3,1.5c0.6,0.6,1.2,1.2,1.6,2c0.4,1,0.5,2.1,0.5,3.2c0,1.1-0.2,2.2-0.6,3.2
		c-0.3,0.9-1,1.7-1.9,2.2c-0.9,0.5-1.9,0.8-3,0.8C36.5,42.7,35,42,34,40.8C32.7,39.5,32.1,37.8,31.9,35.5z"/>
	<path class="st1" d="M50.6,27.5v3h-1.9v8c0,0.2,0.1,0.4,0.3,0.5c0.1,0.1,0.3,0.1,0.5,0.1c0.4,0,0.8-0.1,1.1-0.3l0.3,3
		c-0.7,0.3-1.4,0.5-2.1,0.5c-0.5,0-0.9-0.1-1.4-0.3c-0.3-0.2-0.6-0.5-0.9-0.9c-0.2-0.5-0.3-1-0.3-1.5v-9h-1.3v-3h1.3v-2.9l2.7-2.2
		v5.1C49.5,27.5,50.1,27.5,50.6,27.5z"/>
	<path class="st1" d="M55,42.1h-2.7V27.6h2.5v2.1c0.2-0.7,0.6-1.4,1.1-1.9c0.3-0.3,0.7-0.5,1.1-0.5c0.7,0,1.3,0.3,1.8,0.8l-0.9,3.4
		c-0.3-0.3-0.8-0.6-1.3-0.6c-0.4,0-0.7,0.1-1,0.3c-0.4,0.5-0.6,1-0.6,1.6c-0.2,1.6-0.3,3.2-0.3,4.9C54.7,37.7,55,42.1,55,42.1z"/>
	<path class="st1" d="M62.3,32l-2.5-0.6c0.2-1.2,0.6-2.2,1.4-3.2c0.8-0.7,1.9-1.1,3-1c1-0.1,1.9,0.1,2.7,0.6c0.6,0.4,1,0.9,1.3,1.5
		c0.2,1.1,0.3,2.3,0.3,3.4v4.5c0,1,0,1.9,0.1,2.9c0.1,0.7,0.2,1.3,0.5,2h-2.7c0-0.4-0.1-0.8-0.3-1.1c0-0.3,0-0.3-0.1-0.3
		c-0.4,0.5-0.9,1-1.5,1.4c-0.5,0.3-1.2,0.5-1.8,0.5c-1,0.1-2-0.4-2.5-1.3c-0.6-0.9-0.9-1.9-0.9-3c0-0.8,0.1-1.5,0.3-2.2
		c0.2-0.6,0.6-1.1,1.1-1.5c0.7-0.4,1.4-0.7,2.1-0.9c0.9-0.2,1.8-0.5,2.6-0.9v-0.3c0.1-0.6-0.1-1.1-0.3-1.6c-0.4-0.4-1-0.5-1.5-0.5
		c-0.4,0-0.8,0.1-1.1,0.3C62.5,31.2,62.4,31.6,62.3,32z M65.9,35.2c-0.3,0.1-0.9,0.3-1.6,0.6c-0.5,0.1-1.1,0.3-1.5,0.6
		c-0.4,0.4-0.5,0.9-0.5,1.4c0,0.5,0.1,1,0.3,1.4c0.2,0.4,0.7,0.6,1.1,0.6c0.5,0,1-0.2,1.4-0.6c0.3-0.4,0.5-0.8,0.6-1.3
		c0-0.3,0.1-1,0.1-1.9C65.8,36,65.9,35.2,65.9,35.2z"/>
	<path class="st1" d="M76,27.5v3h-1.9v8c0,0.2,0.1,0.4,0.3,0.5c0.1,0.1,0.3,0.1,0.5,0.1c0.4,0,0.8-0.1,1.1-0.3l0.3,3
		c-0.7,0.3-1.4,0.5-2.1,0.5c-0.5,0-0.9-0.1-1.4-0.3c-0.3-0.2-0.6-0.5-0.9-0.9c-0.2-0.5-0.3-1-0.3-1.5v-9h-1.3v-3h1.3v-2.9l2.7-2.2
		v5.1C74.9,27.5,75.4,27.5,76,27.5z"/>
	<path class="st1" d="M83.9,37.4l2.7,0.6c-0.2,1.2-0.8,2.3-1.6,3.2c-0.8,0.7-1.8,1.1-2.9,1.1c-1.7,0.1-3.3-0.9-4-2.5
		c-0.7-1.6-1-3.3-1-5c0-2.4,0.3-4.3,1.4-5.6c0.7-1.2,2-2,3.4-2c1.5,0,2.9,0.8,3.7,2.1c0.9,1.4,1.3,3.7,1.3,6.5H80
		c0,0.9,0.2,1.8,0.6,2.6c0.3,0.6,1,0.9,1.6,0.9c0.4,0,0.8-0.2,1.1-0.5C83.6,38.7,83.8,38.2,83.9,37.4z M84,33.6
		c0-0.9-0.2-1.7-0.6-2.5c-0.3-0.5-0.8-0.8-1.4-0.9c-0.6,0-1.2,0.3-1.5,0.9c-0.4,0.8-0.6,1.6-0.5,2.5H84z"/>
	<path class="st1" d="M88.7,43l3.2,0.5c0,0.5,0.1,0.9,0.3,1s0.6,0.3,1.3,0.3c0.6,0.1,1.1-0.1,1.6-0.3c0.3-0.1,0.3-0.5,0.5-1
		c0-0.3,0.1-0.9,0.1-1.8v-2.1c-0.8,1.6-1.9,2.4-3,2.4c-1.4,0-2.5-0.8-3.2-2.5c-0.6-1.5-0.9-3.2-0.9-4.9c0-2.5,0.3-4.3,1.3-5.6
		c0.6-1.1,1.7-1.8,3-1.9c1.3,0,2.4,0.8,3.2,2.4v-2h2.6v13.1c0,1.3-0.1,2.6-0.3,3.9c-0.1,0.7-0.4,1.4-0.9,2c-0.4,0.5-0.9,0.9-1.5,1.1
		c-0.7,0.3-1.5,0.4-2.2,0.3c-1.8,0-3-0.3-3.8-1.3c-0.8-0.9-1.2-2-1.1-3.2C88.7,43.5,88.7,43.2,88.7,43z M91.1,34.5
		c0,1.5,0.1,2.6,0.6,3.4c0.5,0.8,0.9,1.1,1.6,1.1c0.7,0,1.4-0.5,1.8-1.1c0.5-1,0.7-2.1,0.6-3.2c0-1.2-0.2-2.3-0.6-3.4
		c-0.3-0.7-0.9-1.1-1.6-1.1c-0.7,0.1-1.3,0.4-1.6,1C91.3,32.2,91.1,33.3,91.1,34.5z"/>
	<path class="st1" d="M101,25.6v-3.7h2.7v3.5H101V25.6z M101,42.1V27.6h2.7v14.5H101z"/>
	<path class="st1" d="M115.6,31.9l-2.7,0.6c0-0.6-0.2-1.3-0.6-1.8c-0.3-0.4-0.8-0.5-1.3-0.5c-0.7,0-1.3,0.4-1.6,1
		c-0.4,1-0.7,2.1-0.6,3.2c0,1.8,0.1,3,0.6,3.7c0.4,0.6,1,0.9,1.6,1c0.5,0,1-0.2,1.3-0.6c0.4-0.6,0.6-1.4,0.6-2.1l2.7,0.6
		c-0.1,1.4-0.7,2.8-1.6,3.9c-1.7,1.8-4.4,1.8-6.2,0.2c-0.2-0.2-0.5-0.5-0.6-0.8c-1-1.7-1.5-3.7-1.4-5.6c0-2.5,0.3-4.3,1.4-5.6
		c0.8-1.3,2.2-2,3.7-2c1.1-0.1,2.2,0.3,3,1.1C114.9,29.2,115.5,30.5,115.6,31.9z"/>
	<path class="st1" d="M116.8,34.9l3.2-0.3c-0.1,0.8,0.1,1.5,0.3,2.2c0.3,0.9,0.9,1.3,1.5,1.3c0.5,0.1,0.9-0.2,1.1-0.6
		c0.3-0.5,0.4-1,0.3-1.5c0-0.5-0.1-1-0.3-1.4c-0.5-0.5-1.1-0.9-1.8-1.1c-1.3-0.4-2.4-1.3-3.2-2.5c-0.7-1.2-1-2.6-1-4
		c0-1,0.1-2,0.5-3c0.2-0.9,0.8-1.7,1.5-2.2c0.8-0.6,1.8-0.8,2.7-0.8c1.3-0.1,2.5,0.5,3.2,1.5c0.8,1,1.1,2.5,1.4,4.6l-3.2,0.3
		c0-0.7-0.2-1.4-0.5-2c-0.2-0.4-0.7-0.6-1.1-0.6c-0.4,0-0.7,0.2-0.9,0.5c-0.2,0.3-0.3,0.7-0.3,1.1c0,0.3,0.1,0.6,0.3,0.9
		c0.1,0.3,0.5,0.5,1.1,0.8c1.2,0.4,2.3,1,3.2,1.9c0.6,0.6,1.1,1.4,1.4,2.2c0.3,1,0.4,2,0.3,3c0.1,1.3-0.1,2.5-0.6,3.7
		c-0.2,1-0.8,1.9-1.6,2.5c-0.8,0.5-1.7,0.8-2.6,0.9c-1.9,0-3.2-0.6-3.9-2C117.2,38.6,116.8,36.8,116.8,34.9z"/>
	<path class="st1" d="M127.5,26.7h3.2l1.6,9.9l1.5-9.9h3l-3.2,16c-0.2,1.3-0.6,2.5-1.1,3.7c-0.5,0.9-1.5,1.4-2.5,1.4
		c-0.7,0-1.3-0.1-2-0.3l-0.3-4c0.5,0.3,1,0.4,1.5,0.3c0.4,0,0.7-0.2,0.9-0.5c0.3-0.5,0.5-1.1,0.5-1.6L127.5,26.7z"/>
	<path class="st1" d="M137.3,37.6l3-0.5c0.1,0.5,0.2,1.1,0.5,1.5c0.2,0.2,0.5,0.4,0.9,0.3c0.4,0,0.8-0.2,1-0.5
		c0.1-0.3,0.2-0.6,0.3-0.9c0-0.4-0.1-0.7-0.3-1c-0.4-0.3-0.9-0.5-1.4-0.6c-0.8-0.2-1.6-0.5-2.2-1c-0.5-0.4-0.8-0.9-1-1.5
		c-0.3-0.8-0.4-1.6-0.3-2.4c-0.1-0.9,0.1-1.7,0.5-2.5c0.2-0.7,0.7-1.2,1.3-1.6c0.6-0.4,1.4-0.5,2.1-0.5c0.7-0.1,1.5,0.1,2.1,0.3
		c0.5,0.3,0.9,0.7,1.1,1.3c0.3,0.8,0.6,1.6,0.8,2.4l-3,0.5c0-0.4-0.1-0.8-0.3-1c-0.2-0.2-0.5-0.4-0.9-0.3c-0.3,0-0.6,0.1-0.8,0.3
		c-0.1,0.3-0.2,0.6-0.3,0.9c0,0.3,0.1,0.6,0.3,0.8c0.4,0.2,0.8,0.4,1.3,0.5c0.8,0.1,1.6,0.4,2.2,0.9c0.5,0.4,0.9,1,1.1,1.6
		c0.2,0.8,0.4,1.6,0.3,2.4c0,0.8-0.1,1.7-0.3,2.5c-0.3,0.8-0.7,1.5-1.4,2c-0.7,0.6-1.6,0.8-2.5,0.8c-1.2,0.1-2.3-0.3-3.2-1.1
		C137.4,40.3,137.4,39,137.3,37.6z"/>
	<path class="st1" d="M151,21.1v5.6h1.8v4.1H151v5.4c0,0.4,0,0.9,0.1,1.3c0.1,0.3,0.3,0.5,0.5,0.5c0.4,0,0.7-0.1,1-0.3l0.3,3.9
		c-0.7,0.3-1.4,0.4-2.1,0.5c-0.6,0.1-1.3-0.1-1.8-0.5c-0.4-0.5-0.7-1-0.8-1.6c-0.2-1.2-0.2-2.4-0.3-3.7V31h-1.1v-4.1h1.1v-2.7
		L151,21.1z"/>
	<path class="st1" d="M163.1,35.7H157c-0.1,0.7,0.1,1.4,0.3,2c0.3,0.6,0.6,1,1.1,1c0.3,0,0.6-0.1,0.9-0.3c0.2-0.3,0.4-0.6,0.5-0.9
		l3,0.5c-0.3,1.2-0.8,2.3-1.6,3.2c-0.8,0.7-1.8,1.1-2.9,1c-0.9,0.1-1.8-0.3-2.5-0.9c-0.7-0.7-1.3-1.6-1.5-2.6
		c-0.4-1.4-0.6-2.8-0.6-4.3c0-2.4,0.3-4.3,1.3-5.6s1.9-2.1,3.2-2.1c1-0.1,2,0.3,2.7,1c0.7,0.8,1.2,1.8,1.5,2.9
		c0.4,1.6,0.6,3.2,0.5,4.8L163.1,35.7L163.1,35.7z M160.1,32.9c0-0.8-0.2-1.6-0.5-2.4c-0.2-0.4-0.6-0.7-1-0.8
		c-0.5,0-0.9,0.3-1.1,1.1c-0.2,0.6-0.3,1.3-0.3,2L160.1,32.9L160.1,32.9z"/>
	<path class="st1" d="M164.6,26.7h2.9v2.1c0.3-0.7,0.7-1.4,1.3-2c0.4-0.4,1-0.6,1.5-0.5c0.6-0.1,1.2,0.1,1.5,0.6
		c0.4,0.6,0.7,1.2,0.9,1.9c0.3-0.8,0.8-1.4,1.4-2c0.4-0.4,1-0.6,1.5-0.5c0.9,0,1.6,0.6,2,1.4c0.6,1.4,0.9,3,0.8,4.5v9.3h-3.2v-8.5
		c0-0.5,0-1-0.1-1.5c0-0.4-0.4-0.7-0.8-0.8c-0.3,0-0.6,0.3-0.9,0.8c-0.2,0.8-0.3,1.6-0.3,2.4v7.7h-3v-9.5c0-0.3-0.1-0.6-0.3-0.9
		c-0.1-0.2-0.3-0.3-0.5-0.3c-0.3,0-0.6,0.3-0.9,0.8c-0.3,0.8-0.4,1.6-0.3,2.5v7.7h-3L164.6,26.7z"/>
	<path class="st1" d="M179.4,37.6l3-0.5c0.1,0.5,0.2,1.1,0.5,1.5c0.2,0.3,0.5,0.4,0.9,0.3c0.4,0,0.8-0.2,1-0.5
		c0.1-0.3,0.2-0.6,0.3-0.9c0-0.4-0.1-0.7-0.3-1c-0.4-0.3-0.9-0.5-1.4-0.6c-0.8-0.2-1.6-0.5-2.2-1c-0.5-0.4-0.8-0.9-1-1.5
		c-0.3-0.8-0.4-1.6-0.3-2.4c-0.1-0.9,0.1-1.7,0.5-2.5c0.2-0.7,0.7-1.2,1.3-1.6c0.6-0.4,1.4-0.5,2.1-0.5c0.7-0.1,1.5,0.1,2.1,0.3
		c0.5,0.3,0.9,0.7,1.1,1.3c0.3,0.8,0.6,1.6,0.8,2.4l-3,0.5c0-0.4-0.1-0.8-0.3-1c-0.2-0.2-0.5-0.4-0.9-0.3c-0.3,0-0.6,0.1-0.8,0.3
		c0,0.3,0,0.6,0,0.9c0,0.3,0.1,0.6,0.3,0.8c0.4,0.2,0.8,0.4,1.3,0.5c0.8,0.1,1.6,0.4,2.2,0.9c0.5,0.4,0.9,1,1.1,1.6
		c0.2,0.8,0.4,1.6,0.3,2.4c0,0.8-0.1,1.7-0.3,2.5c-0.3,0.8-0.7,1.5-1.4,2c-0.7,0.6-1.6,0.8-2.5,0.8c-1.2,0.1-2.3-0.3-3.2-1.1
		C180,40,179.6,38.8,179.4,37.6z"/>
	<path class="st1" d="M64.7,56.5v-1.8h3.8v4.1c-0.4,0.5-1,0.9-1.6,1.1c-0.6,0.3-1.3,0.5-2,0.5c-1.7,0.1-3.2-0.9-3.8-2.5
		C60.6,57,60.4,56,60.4,55c0-1,0.2-2,0.6-2.9c0.3-0.7,0.8-1.4,1.5-1.8c0.7-0.4,1.4-0.6,2.2-0.6c1.9-0.2,3.5,1.2,3.7,3c0,0,0,0,0,0
		l-1.7,0.4c-0.1-0.5-0.3-0.9-0.7-1.2c-0.9-0.7-2.3-0.5-3,0.4c0,0,0,0,0,0c-0.5,0.8-0.7,1.7-0.7,2.6c-0.1,1,0.2,2,0.8,2.8
		c0.4,0.6,1,0.9,1.7,0.9c0.4,0,0.7-0.1,1-0.3c0.4-0.1,0.7-0.4,0.9-0.7v-1.3H64.7z"/>
	<path class="st1" d="M69.5,56.4c0-0.7,0.1-1.4,0.4-2c0.2-0.5,0.6-1,1.1-1.4c0.5-0.3,1-0.5,1.6-0.4c0.9,0,1.8,0.4,2.4,1.2
		c0.6,0.8,0.9,1.8,0.9,2.7c0,0.7-0.2,1.5-0.4,2.1c-0.3,0.6-0.7,1.1-1.2,1.5c-0.5,0.3-1,0.5-1.6,0.5c-0.9,0-1.7-0.4-2.3-1
		C69.8,58.6,69.5,57.5,69.5,56.4z M71.2,56.5c0,0.6,0.1,1.2,0.4,1.7c0.2,0.4,0.7,0.6,1.1,0.6c0.4,0,0.8-0.2,1-0.6
		c0.6-1.1,0.6-2.3,0-3.4c-0.3-0.6-1-0.8-1.6-0.4c-0.2,0.1-0.3,0.3-0.4,0.4C71.4,55.2,71.2,55.8,71.2,56.5z"/>
	<path class="st1" d="M79,60.2l-2.5-7.5h1.7l1.2,3.8l0.3,1.3l0.3-1.3l1.2-3.8H83l-2.5,7.5L79,60.2z"/>
	<path class="st1" d="M87.5,57.8l1.6,0.3c-0.2,0.6-0.5,1.2-1,1.7c-0.5,0.4-1.1,0.5-1.7,0.5c-0.8,0-1.6-0.3-2.1-0.9
		c-0.6-0.9-0.9-1.9-0.9-3c-0.1-1.1,0.2-2.1,0.9-3c0.5-0.6,1.2-0.9,2-0.9c0.8,0,1.6,0.3,2,0.9c0.6,1,0.9,2.2,0.9,3.3v0.3h-4.1
		c0,0.5,0.1,1,0.4,1.4c0.2,0.3,0.6,0.5,0.9,0.5C86.9,58.9,87.3,58.6,87.5,57.8z M87.6,55.9c0-0.5-0.1-0.9-0.3-1.4
		c-0.4-0.5-1-0.6-1.5-0.2c-0.1,0.1-0.2,0.1-0.2,0.2c-0.3,0.4-0.4,0.8-0.3,1.3L87.6,55.9L87.6,55.9z"/>
	<path class="st1" d="M92.2,60.2h-1.6v-7.5h1.5v1.1c0.2-0.4,0.4-0.7,0.7-1c0.2-0.2,0.4-0.3,0.7-0.3c0.4,0,0.8,0.1,1.1,0.3L94,54.6
		c-0.2-0.2-0.5-0.3-0.8-0.3c-0.2,0-0.4,0.1-0.6,0.3c-0.2,0.3-0.3,0.6-0.3,0.9c-0.1,0.8-0.1,1.6-0.1,2.4L92.2,60.2L92.2,60.2z"/>
	<path class="st1" d="M100.9,60.2h-1.7v-3.8c0-0.5,0-1-0.1-1.5c-0.1-0.2-0.2-0.4-0.3-0.6c-0.2-0.1-0.4-0.2-0.6-0.2
		c-0.3,0-0.5,0.1-0.8,0.3c-0.2,0.2-0.4,0.5-0.4,0.8c-0.1,0.6-0.2,1.2-0.2,1.8v3.4h-1.6v-7.5h1.5v1.1c0.2-0.4,0.5-0.7,0.9-0.9
		c0.3-0.2,0.7-0.3,1.1-0.3c0.8-0.1,1.6,0.5,1.9,1.3c0.1,0.6,0.2,1.1,0.2,1.7L100.9,60.2L100.9,60.2z"/>
	<path class="st1" d="M102.4,52.7h1.5v1c0.2-0.4,0.5-0.7,0.9-0.9c0.3-0.2,0.7-0.3,1-0.3c0.4,0,0.7,0.1,1,0.3
		c0.3,0.2,0.6,0.6,0.7,0.9c0.2-0.4,0.5-0.7,0.9-0.9c0.3-0.2,0.7-0.3,1-0.3c0.8,0,1.5,0.5,1.8,1.2c0.2,0.5,0.3,1.1,0.3,1.7v4.8h-1.6
		v-4.3c0-0.5,0-1-0.2-1.5c-0.1-0.2-0.4-0.4-0.7-0.3c-0.4,0-0.7,0.2-0.9,0.5c-0.3,0.6-0.4,1.3-0.3,2v3.6h-1.6V56c0-0.5,0-1.1-0.2-1.6
		c-0.1-0.3-0.3-0.4-0.7-0.4c-0.2,0-0.5,0.1-0.7,0.3c-0.2,0.2-0.3,0.4-0.4,0.7c-0.1,0.5-0.2,1-0.2,1.5v3.7h-1.6L102.4,52.7
		L102.4,52.7z"/>
	<path class="st1" d="M116.8,57.8l1.6,0.3c-0.2,0.6-0.5,1.2-1,1.7c-0.5,0.4-1.1,0.5-1.7,0.5c-0.8,0-1.6-0.3-2.1-0.9
		c-0.6-0.9-0.9-1.9-0.9-3c-0.1-1.1,0.2-2.1,0.9-3c0.5-0.6,1.2-1,2-0.9c0.8,0,1.6,0.3,2,0.9c0.6,1,0.9,2.2,0.9,3.3v0.3h-4.1
		c0,0.5,0.1,1,0.4,1.4c0.2,0.3,0.6,0.5,0.9,0.5C116.2,58.9,116.6,58.6,116.8,57.8z M116.8,55.9c0-0.5-0.1-0.9-0.3-1.4
		c-0.4-0.5-1-0.6-1.5-0.2c-0.1,0.1-0.2,0.1-0.2,0.2c-0.3,0.4-0.4,0.8-0.3,1.3L116.8,55.9L116.8,55.9z"/>
	<path class="st1" d="M125.4,60.2h-1.6v-3.8c0-0.5,0-1-0.1-1.5c-0.1-0.2-0.2-0.4-0.3-0.6c-0.2-0.1-0.4-0.2-0.6-0.2
		c-0.3,0-0.5,0.1-0.8,0.3c-0.2,0.2-0.4,0.5-0.4,0.8c-0.1,0.6-0.2,1.2-0.2,1.8v3.4h-1.6v-7.5h1.5v1.1c0.2-0.4,0.5-0.7,0.9-0.9
		c0.3-0.2,0.7-0.3,1.1-0.3c0.8-0.1,1.6,0.5,1.9,1.3c0.1,0.6,0.2,1.1,0.2,1.7L125.4,60.2L125.4,60.2z"/>
	<path class="st1" d="M129.9,52.7v1.6h-1.1v3.1c0,0.7,0,1,0.1,1.1c0.1,0.2,0.2,0.3,0.4,0.3c0.2,0,0.5-0.1,0.7-0.2l0.2,1.5
		c-0.4,0.2-0.8,0.3-1.3,0.3c-0.4,0-0.7-0.1-1-0.3c-0.3-0.2-0.4-0.5-0.5-0.9c-0.1-0.6-0.1-1.1-0.1-1.7v-3.2h-0.8v-1.6h0.8v-1.5
		l1.6-1.2v2.6L129.9,52.7L129.9,52.7z"/>
	<path class="st1" d="M133.9,56.9l1.7-0.2c0.2,1.4,0.8,2,1.9,2c0.4,0,0.9-0.1,1.2-0.4c0.3-0.2,0.5-0.6,0.4-1c0-0.2-0.1-0.4-0.2-0.6
		c-0.1-0.2-0.3-0.4-0.5-0.4l-1.5-0.5c-0.6-0.1-1.1-0.4-1.6-0.7c-0.3-0.3-0.6-0.6-0.9-1c-0.2-0.4-0.3-0.9-0.3-1.4
		c0-0.5,0.1-1.1,0.4-1.5c0.3-0.4,0.6-0.8,1.1-1c0.5-0.3,1.1-0.4,1.7-0.3c0.9-0.1,1.7,0.2,2.4,0.9c0.6,0.6,0.9,1.4,0.9,2.3l-1.7,0.1
		c0-0.4-0.2-0.9-0.5-1.2c-0.3-0.3-0.7-0.4-1.1-0.3c-0.4,0-0.8,0.1-1.1,0.3c-0.4,0.3-0.5,0.8-0.2,1.2c0,0.1,0.1,0.1,0.2,0.2
		c0.5,0.3,1,0.5,1.5,0.6c0.7,0.2,1.3,0.4,1.9,0.8c0.4,0.2,0.7,0.6,0.9,1.1c0.2,0.5,0.3,1.1,0.3,1.6c0,0.9-0.3,1.7-0.9,2.3
		c-0.7,0.7-1.7,1-2.6,0.9C135.4,60.4,134.2,59.2,133.9,56.9z"/>
	<path class="st1" d="M141.9,56.4c0-0.7,0.1-1.4,0.4-2c0.2-0.5,0.6-1,1.1-1.4c0.5-0.3,1.1-0.5,1.6-0.4c0.9,0,1.8,0.4,2.4,1.2
		c0.6,0.8,0.9,1.8,0.9,2.7c0,0.7-0.2,1.5-0.4,2.1c-0.3,0.6-0.7,1.1-1.2,1.5c-0.5,0.3-1,0.5-1.6,0.5c-0.9,0-1.7-0.4-2.3-1
		C142.2,58.6,141.9,57.5,141.9,56.4z M143.7,56.5c0,0.6,0.1,1.2,0.4,1.7c0.3,0.4,0.7,0.6,1.1,0.6c0.4,0,0.8-0.2,1-0.6
		c0.6-1.1,0.6-2.3,0-3.4c-0.2-0.4-0.7-0.6-1.1-0.6c-0.4,0-0.8,0.2-1,0.6C143.8,55.3,143.6,55.9,143.7,56.5z"/>
	<path class="st1" d="M149.6,60.2V49.9h1.6v10.4L149.6,60.2L149.6,60.2z"/>
	<path class="st1" d="M157.1,60.2v-1.1c-0.2,0.4-0.5,0.7-0.9,0.9c-0.4,0.2-0.8,0.4-1.2,0.3c-0.4,0-0.8-0.1-1.1-0.3
		c-0.4-0.2-0.6-0.5-0.7-0.9c-0.2-0.6-0.2-1.1-0.3-1.7v-4.8h1.6V56c0,0.6,0,1.3,0.1,1.9c0.1,0.3,0.2,0.5,0.3,0.6
		c0.2,0.2,0.4,0.3,0.6,0.3c0.3,0,0.5-0.1,0.8-0.3c0.2-0.2,0.4-0.5,0.4-0.8c0.1-0.7,0.1-1.3,0.1-2v-3.2h1.6v7.5L157.1,60.2
		L157.1,60.2z"/>
	<path class="st1" d="M163.1,52.7v1.6H162v3.1c0,0.7,0,1,0.1,1.1c0.1,0.2,0.2,0.3,0.4,0.3c0.2,0,0.5-0.1,0.7-0.2v1.5
		c-0.4,0.2-0.8,0.3-1.3,0.3c-0.4,0-0.7-0.1-1-0.3c-0.3-0.2-0.4-0.5-0.5-0.9c-0.1-0.6-0.1-1.1-0.1-1.7v-3.2h-0.8v-1.6h0.8v-1.5
		l1.6-1.2v2.6L163.1,52.7L163.1,52.7z"/>
	<path class="st1" d="M164.2,51.7v-1.8h1.6v1.9L164.2,51.7L164.2,51.7z M164.2,60.2v-7.5h1.6v7.5H164.2z"/>
	<path class="st1" d="M167.2,56.4c0-0.7,0.1-1.4,0.4-2c0.2-0.5,0.6-1,1.1-1.4c0.5-0.3,1.1-0.5,1.6-0.4c0.9,0,1.8,0.4,2.4,1.2
		c0.6,0.8,0.9,1.8,0.9,2.7c0,0.7-0.2,1.5-0.4,2.1c-0.3,0.6-0.7,1.1-1.2,1.5c-0.5,0.3-1,0.5-1.6,0.5c-0.9,0-1.7-0.4-2.3-1
		C167.5,58.6,167.2,57.5,167.2,56.4z M168.8,56.5c0,0.6,0.1,1.2,0.4,1.7c0.3,0.4,0.7,0.6,1.1,0.6c0.4,0,0.8-0.2,1-0.6
		c0.6-1.1,0.6-2.3,0-3.4c-0.2-0.4-0.7-0.6-1.1-0.6c-0.4,0-0.8,0.2-1,0.6C169,55.3,168.8,55.9,168.8,56.5L168.8,56.5z"/>
	<path class="st1" d="M180.6,60.2h-1.6v-3.8c0-0.5,0-1-0.1-1.5c-0.1-0.2-0.2-0.4-0.3-0.6c-0.2-0.1-0.4-0.2-0.6-0.2
		c-0.3,0-0.5,0.1-0.8,0.3c-0.2,0.2-0.4,0.5-0.4,0.8c-0.1,0.6-0.2,1.2-0.2,1.8v3.4h-1.6v-7.5h1.5v1.1c0.2-0.4,0.5-0.7,0.9-0.9
		c0.3-0.2,0.7-0.3,1.1-0.3c0.8-0.1,1.6,0.5,1.9,1.3c0.1,0.6,0.2,1.1,0.2,1.7L180.6,60.2L180.6,60.2z"/>
	<path class="st1" d="M181.6,58.1l1.6-0.3c0.1,0.7,0.7,1.2,1.4,1.2c0.3,0,0.6-0.1,0.9-0.3c0.3-0.3,0.3-0.7,0.2-1
		c-0.2-0.1-0.3-0.2-0.5-0.3c-0.9-0.1-1.8-0.5-2.6-1c-0.4-0.4-0.7-1-0.7-1.6c0-0.6,0.2-1.3,0.7-1.7c0.6-0.4,1.3-0.7,2-0.6
		c0.7,0,1.3,0.1,1.9,0.5c0.4,0.4,0.7,0.9,0.9,1.5l-1.5,0.3c-0.1-0.6-0.6-1-1.2-0.9c-0.3,0-0.6,0-0.9,0.2c-0.2,0.1-0.3,0.4-0.2,0.7
		c0,0.1,0.1,0.1,0.2,0.2c0.2,0.1,0.7,0.3,1.5,0.5c0.7,0.1,1.3,0.5,1.9,0.9c0.4,0.4,0.5,0.9,0.5,1.5c0,0.7-0.2,1.3-0.8,1.8
		c-0.6,0.5-1.3,0.7-2,0.7c-0.7,0-1.4-0.2-2-0.6C182.1,59.4,181.7,58.8,181.6,58.1z"/>
</g>
</svg>
